<svg width="100" height="100" viewBox="0 0 100 100" fill="none" xmlns="http://www.w3.org/2000/svg">
<path d="M100 50C100 77.6142 77.6142 100 50 100C22.3858 100 0 77.6142 0 50C0 22.3858 22.3858 0 50 0C77.6142 0 100 22.3858 100 50Z" fill="url(#paint0_linear_134_5)"/>
<path d="M8.928 67V33.4H24.288C26.56 33.4 28.624 33.896 30.48 34.888C32.368 35.88 33.856 37.256 34.944 39.016C36.064 40.776 36.624 42.808 36.624 45.112C36.624 47.256 36.112 49.192 35.088 50.92C34.064 52.616 32.72 53.992 31.056 55.048L33.744 59.608C33.904 59.832 34.08 60.008 34.272 60.136C34.496 60.264 34.784 60.328 35.136 60.328H38.112V67H33.408C31.968 67 30.656 66.664 29.472 65.992C28.288 65.288 27.36 64.376 26.688 63.256L23.088 56.872C22.864 56.872 22.624 56.872 22.368 56.872C22.144 56.872 21.904 56.872 21.648 56.872H16.992V67H8.928ZM16.992 50.2H23.376C24.304 50.2 25.168 50.008 25.968 49.624C26.768 49.208 27.392 48.632 27.84 47.896C28.32 47.128 28.56 46.216 28.56 45.16C28.56 44.104 28.32 43.208 27.84 42.472C27.36 41.704 26.72 41.128 25.92 40.744C25.152 40.328 24.304 40.12 23.376 40.12H16.992V50.2Z" fill="#2E2E2E"/>
<path d="M65.4045 67.576C63.4525 67.576 61.6605 67.144 60.0285 66.28C58.4285 65.416 57.1485 64.216 56.1885 62.68C55.2605 61.144 54.7965 59.32 54.7965 57.208V42.568C54.7965 42.056 54.6685 41.592 54.4125 41.176C54.1565 40.76 53.8205 40.424 53.4045 40.168C52.9885 39.912 52.5245 39.784 52.0125 39.784C51.5005 39.784 51.0365 39.912 50.6205 40.168C50.2045 40.424 49.8685 40.76 49.6125 41.176C49.3885 41.592 49.2765 42.056 49.2765 42.568V67H41.4045V43.144C41.4045 41.128 41.8525 39.352 42.7485 37.816C43.6765 36.28 44.9405 35.064 46.5405 34.168C48.1725 33.272 49.9965 32.824 52.0125 32.824C54.0605 32.824 55.8845 33.272 57.4845 34.168C59.0845 35.064 60.3485 36.28 61.2765 37.816C62.2045 39.352 62.6685 41.128 62.6685 43.144V57.784C62.6685 58.328 62.7965 58.808 63.0525 59.224C63.3085 59.64 63.6285 59.976 64.0125 60.232C64.4285 60.456 64.8765 60.568 65.3565 60.568C65.8685 60.568 66.3325 60.456 66.7485 60.232C67.1965 59.976 67.5485 59.64 67.8045 59.224C68.0605 58.808 68.1885 58.328 68.1885 57.784V43.144C68.1885 41.128 68.6525 39.352 69.5805 37.816C70.5085 36.28 71.7725 35.064 73.3725 34.168C75.0045 33.272 76.8125 32.824 78.7965 32.824C80.8445 32.824 82.6525 33.272 84.2205 34.168C85.8205 35.064 87.0845 36.28 88.0125 37.816C88.9405 39.352 89.4045 41.128 89.4045 43.144V67H81.5325V42.52C81.5325 42.008 81.4045 41.56 81.1485 41.176C80.9245 40.76 80.6045 40.424 80.1885 40.168C79.7725 39.912 79.3085 39.784 78.7965 39.784C78.3165 39.784 77.8525 39.912 77.4045 40.168C76.9885 40.424 76.6525 40.76 76.3965 41.176C76.1405 41.56 76.0125 42.008 76.0125 42.52V57.208C76.0125 59.32 75.5325 61.144 74.5725 62.68C73.6125 64.216 72.3325 65.416 70.7325 66.28C69.1325 67.144 67.3565 67.576 65.4045 67.576Z" fill="#2E2E2E"/>
<defs>
<linearGradient id="paint0_linear_134_5" x1="50" y1="100" x2="50.0001" y2="2.0077e-06" gradientUnits="userSpaceOnUse">
<stop offset="0.328125" stop-color="#A00BE7"/>
<stop offset="0.666667" stop-color="#CB11FF"/>
</linearGradient>
</defs>
</svg>
