<svg width="24" height="27" viewBox="0 0 24 27" fill="none" xmlns="http://www.w3.org/2000/svg">
<path d="M12.0001 0C5.37347 0 0 6.03777 0 13.486C0 19.4444 3.43838 24.4996 8.20641 26.2828C8.80613 26.4076 9.02634 25.9902 9.02634 25.634C9.02634 25.3124 9.01509 24.2501 9.01003 23.1233C5.67159 23.939 4.96716 21.5321 4.96716 21.5321C4.42125 19.9733 3.63469 19.5587 3.63469 19.5587C2.54597 18.7217 3.71681 18.739 3.71681 18.739C4.92178 18.8341 5.55628 20.1287 5.55628 20.1287C6.62663 22.1904 8.36362 21.5943 9.04838 21.2497C9.15609 20.3782 9.46706 19.7831 9.81028 19.4464C7.14487 19.1055 4.34297 17.9491 4.34297 12.7816C4.34297 11.3093 4.81172 10.1062 5.57934 9.16175C5.45475 8.82207 5.04403 7.45052 5.69559 5.59284C5.69559 5.59284 6.70331 5.23041 8.99653 6.97525C9.95372 6.67645 10.9803 6.52663 12.0001 6.52147C13.0199 6.52663 14.0473 6.67635 15.0063 6.97525C17.2967 5.23051 18.303 5.59295 18.303 5.59295C18.9562 7.45041 18.5452 8.82218 18.4207 9.16175C19.1901 10.1062 19.6556 11.3093 19.6556 12.7816C19.6556 17.9614 16.8484 19.1019 14.1762 19.4358C14.6066 19.8542 14.9902 20.675 14.9902 21.9332C14.9902 23.7375 14.9763 25.1898 14.9763 25.634C14.9763 25.9929 15.1923 26.4134 15.8005 26.2809C20.5659 24.4958 24 19.4425 24 13.4861C24 6.03777 18.6273 0 12.0001 0ZM4.49447 19.211C4.46803 19.278 4.37419 19.2982 4.28878 19.2521C4.20169 19.2082 4.15284 19.1168 4.18097 19.0496C4.20684 18.9806 4.30087 18.9613 4.38769 19.0076C4.47487 19.0516 4.52456 19.1438 4.49447 19.211ZM5.08472 19.8029C5.02753 19.8626 4.91559 19.8349 4.83966 19.7407C4.76119 19.6467 4.74647 19.5209 4.8045 19.4604C4.86356 19.4008 4.97203 19.4287 5.05069 19.5227C5.12925 19.6178 5.14444 19.7427 5.08472 19.8029ZM5.48972 20.5603C5.41612 20.6177 5.29594 20.5638 5.22159 20.4439C5.14809 20.324 5.14809 20.1802 5.22319 20.1226C5.29772 20.065 5.41613 20.1168 5.49141 20.2359C5.56472 20.3578 5.56472 20.5016 5.48962 20.5604L5.48972 20.5603ZM6.17447 21.4374C6.10875 21.5189 5.96859 21.497 5.86603 21.3857C5.76113 21.277 5.73197 21.1228 5.79797 21.0412C5.86453 20.9595 6.00544 20.9824 6.10875 21.0928C6.21281 21.2014 6.24469 21.3568 6.17447 21.4374ZM7.05966 21.7334C7.03059 21.8391 6.89559 21.8871 6.75975 21.8423C6.624 21.796 6.53522 21.6723 6.56259 21.5656C6.59081 21.4592 6.72638 21.4092 6.86325 21.4573C6.99881 21.5032 7.08788 21.6261 7.05966 21.7335V21.7334ZM8.06691 21.8591C8.07028 21.9703 7.95506 22.0625 7.81238 22.0646C7.66894 22.0681 7.55278 21.9782 7.55119 21.8686C7.55119 21.7564 7.66388 21.665 7.80741 21.6623C7.95009 21.6591 8.06691 21.7485 8.06691 21.8591ZM9.05644 21.8164C9.0735 21.925 8.97441 22.0364 8.83266 22.0661C8.69344 22.0947 8.56444 22.0277 8.54672 21.9201C8.52947 21.8089 8.63044 21.6974 8.76947 21.6686C8.91141 21.6409 9.03834 21.7061 9.05644 21.8164Z" fill="url(#paint0_linear_95_239)"/>
<defs>
<linearGradient id="paint0_linear_95_239" x1="12" y1="26.3059" x2="12" y2="5.28145e-07" gradientUnits="userSpaceOnUse">
<stop offset="0.328125" stop-color="#A00BE7"/>
<stop offset="0.666667" stop-color="#CB11FF"/>
</linearGradient>
</defs>
</svg>
