<svg width="36" height="36" viewBox="0 0 36 36" fill="none" xmlns="http://www.w3.org/2000/svg">
<g clip-path="url(#clip0_58_344)">
<path opacity="0.3" d="M28.4999 26.205C27.1799 26.1 25.8749 25.875 24.5999 25.53L22.8149 27.315C24.6149 27.93 26.5349 28.32 28.5149 28.44V26.205H28.4999ZM7.54492 7.5C7.67992 9.48 8.06992 11.385 8.66992 13.2L10.4699 11.4C10.1249 10.14 9.89992 8.835 9.80992 7.5H7.54492Z" fill="url(#paint0_linear_58_344)"/>
<path d="M13.605 11.355C13.05 9.675 12.75 7.875 12.75 6C12.75 5.175 12.075 4.5 11.25 4.5H6C5.175 4.5 4.5 5.175 4.5 6C4.5 20.085 15.915 31.5 30 31.5C30.825 31.5 31.5 30.825 31.5 30V24.765C31.5 23.94 30.825 23.265 30 23.265C28.14 23.265 26.325 22.965 24.645 22.41C24.495 22.35 24.33 22.335 24.18 22.335C23.79 22.335 23.415 22.485 23.115 22.77L19.815 26.07C15.57 23.895 12.09 20.43 9.93 16.185L13.23 12.885C13.65 12.465 13.77 11.88 13.605 11.355V11.355ZM24.6 25.53C25.875 25.89 27.18 26.115 28.5 26.205V28.44C26.52 28.305 24.615 27.915 22.8 27.315L24.6 25.53V25.53ZM8.685 13.2C8.07 11.385 7.68 9.48 7.545 7.5H9.795C9.9 8.835 10.125 10.14 10.485 11.385L8.685 13.2Z" fill="url(#paint1_linear_58_344)"/>
</g>
<defs>
<linearGradient id="paint0_linear_58_344" x1="18.0299" y1="28.44" x2="18.0299" y2="7.5" gradientUnits="userSpaceOnUse">
<stop offset="0.1875" stop-color="#CB11FF"/>
<stop offset="0.625" stop-color="#A00BE7"/>
</linearGradient>
<linearGradient id="paint1_linear_58_344" x1="18" y1="31.5" x2="18" y2="4.5" gradientUnits="userSpaceOnUse">
<stop offset="0.1875" stop-color="#CB11FF"/>
<stop offset="0.625" stop-color="#A00BE7"/>
</linearGradient>
<clipPath id="clip0_58_344">
<rect width="36" height="36" fill="white"/>
</clipPath>
</defs>
</svg>
