<svg width="300" height="63" viewBox="0 0 300 63" fill="none" xmlns="http://www.w3.org/2000/svg">
<path d="M111.64 16C111.089 16 110.604 15.8787 110.184 15.636C109.773 15.384 109.451 15.048 109.218 14.628C108.994 14.208 108.882 13.7413 108.882 13.228V6.2H110.562V13.438C110.562 13.7367 110.66 13.9933 110.856 14.208C111.061 14.4227 111.323 14.53 111.64 14.53H114.244V16H111.64ZM118.958 16.168C118.221 16.168 117.567 16.0047 116.998 15.678C116.429 15.342 115.976 14.894 115.64 14.334C115.313 13.7647 115.15 13.13 115.15 12.43C115.15 11.73 115.313 11.1 115.64 10.54C115.976 9.97067 116.429 9.52267 116.998 9.196C117.567 8.86 118.221 8.692 118.958 8.692C119.686 8.692 120.335 8.86 120.904 9.196C121.473 9.52267 121.921 9.966 122.248 10.526C122.584 11.086 122.752 11.7207 122.752 12.43C122.752 13.13 122.584 13.7647 122.248 14.334C121.921 14.894 121.473 15.342 120.904 15.678C120.335 16.0047 119.686 16.168 118.958 16.168ZM118.958 14.796C119.397 14.796 119.779 14.6933 120.106 14.488C120.433 14.2733 120.685 13.9887 120.862 13.634C121.039 13.2793 121.128 12.878 121.128 12.43C121.128 11.9913 121.039 11.5947 120.862 11.24C120.685 10.876 120.433 10.5913 120.106 10.386C119.779 10.1713 119.397 10.064 118.958 10.064C118.51 10.064 118.123 10.1713 117.796 10.386C117.479 10.5913 117.227 10.8713 117.04 11.226C116.863 11.5807 116.774 11.982 116.774 12.43C116.774 12.8687 116.863 13.27 117.04 13.634C117.227 13.9887 117.479 14.2733 117.796 14.488C118.123 14.6933 118.51 14.796 118.958 14.796ZM127.177 16.168C126.495 16.168 125.907 16 125.413 15.664C124.918 15.328 124.535 14.88 124.265 14.32C124.003 13.7507 123.873 13.1253 123.873 12.444C123.873 11.7347 124.022 11.1 124.321 10.54C124.629 9.97067 125.063 9.52267 125.623 9.196C126.192 8.86 126.869 8.692 127.653 8.692C128.427 8.692 129.085 8.86 129.627 9.196C130.177 9.52267 130.597 9.97067 130.887 10.54C131.185 11.1 131.335 11.7253 131.335 12.416V16H129.725V14.67H129.697C129.557 14.9313 129.375 15.1787 129.151 15.412C128.927 15.636 128.651 15.818 128.325 15.958C127.998 16.098 127.615 16.168 127.177 16.168ZM127.611 14.796C128.031 14.796 128.395 14.6933 128.703 14.488C129.02 14.2733 129.267 13.9887 129.445 13.634C129.622 13.27 129.706 12.864 129.697 12.416C129.697 11.968 129.613 11.5713 129.445 11.226C129.277 10.8713 129.039 10.5913 128.731 10.386C128.423 10.1713 128.054 10.064 127.625 10.064C127.177 10.064 126.794 10.1713 126.477 10.386C126.159 10.5913 125.917 10.8713 125.749 11.226C125.581 11.5807 125.497 11.982 125.497 12.43C125.497 12.8687 125.581 13.27 125.749 13.634C125.917 13.9887 126.155 14.2733 126.463 14.488C126.78 14.6933 127.163 14.796 127.611 14.796ZM136.579 16.168C136.01 16.168 135.492 16.0793 135.025 15.902C134.568 15.7153 134.176 15.4493 133.849 15.104C133.532 14.7587 133.284 14.3527 133.107 13.886C132.939 13.41 132.855 12.8873 132.855 12.318C132.855 11.59 133 10.9553 133.289 10.414C133.588 9.87267 133.998 9.45267 134.521 9.154C135.044 8.846 135.641 8.692 136.313 8.692C136.649 8.692 136.966 8.74333 137.265 8.846C137.564 8.94867 137.834 9.09333 138.077 9.28C138.32 9.46667 138.516 9.686 138.665 9.938H138.679V5.78H140.289V12.346C140.289 13.13 140.13 13.8113 139.813 14.39C139.505 14.9593 139.071 15.398 138.511 15.706C137.96 16.014 137.316 16.168 136.579 16.168ZM136.579 14.796C136.99 14.796 137.349 14.698 137.657 14.502C137.974 14.2967 138.222 14.0167 138.399 13.662C138.576 13.3073 138.665 12.8967 138.665 12.43C138.665 11.9633 138.576 11.5527 138.399 11.198C138.222 10.8433 137.974 10.568 137.657 10.372C137.349 10.1667 136.985 10.064 136.565 10.064C136.164 10.064 135.804 10.1667 135.487 10.372C135.17 10.5773 134.922 10.8573 134.745 11.212C134.568 11.5667 134.479 11.9727 134.479 12.43C134.479 12.8967 134.568 13.3073 134.745 13.662C134.922 14.0167 135.17 14.2967 135.487 14.502C135.814 14.698 136.178 14.796 136.579 14.796ZM142.161 16V8.86H143.771V16H142.161ZM142.959 7.866C142.679 7.866 142.437 7.76333 142.231 7.558C142.026 7.35267 141.923 7.11 141.923 6.83C141.923 6.55 142.026 6.30733 142.231 6.102C142.437 5.89667 142.679 5.794 142.959 5.794C143.249 5.794 143.491 5.89667 143.687 6.102C143.893 6.30733 143.995 6.55 143.995 6.83C143.995 7.11 143.893 7.35267 143.687 7.558C143.491 7.76333 143.249 7.866 142.959 7.866ZM145.702 16V11.884C145.702 11.268 145.842 10.722 146.122 10.246C146.402 9.76067 146.799 9.38267 147.312 9.112C147.826 8.832 148.428 8.692 149.118 8.692C149.809 8.692 150.406 8.832 150.91 9.112C151.424 9.38267 151.82 9.76067 152.1 10.246C152.38 10.722 152.52 11.268 152.52 11.884V16H150.924V11.898C150.924 11.534 150.84 11.2167 150.672 10.946C150.504 10.666 150.28 10.4513 150 10.302C149.73 10.1433 149.431 10.064 149.104 10.064C148.787 10.064 148.488 10.1433 148.208 10.302C147.938 10.4513 147.718 10.666 147.55 10.946C147.392 11.2167 147.312 11.534 147.312 11.898V16H145.702ZM155.53 18.842V17.47H159.114C159.357 17.47 159.544 17.3953 159.674 17.246C159.814 17.0967 159.884 16.91 159.884 16.686V14.838H159.87C159.665 15.09 159.446 15.3093 159.212 15.496C158.979 15.6733 158.713 15.8133 158.414 15.916C158.125 16.0093 157.803 16.056 157.448 16.056C156.795 16.056 156.212 15.902 155.698 15.594C155.185 15.286 154.779 14.8567 154.48 14.306C154.191 13.746 154.046 13.1067 154.046 12.388C154.046 11.688 154.191 11.0627 154.48 10.512C154.779 9.952 155.204 9.50867 155.754 9.182C156.305 8.85533 156.977 8.692 157.77 8.692C158.526 8.692 159.18 8.85067 159.73 9.168C160.29 9.48533 160.724 9.93333 161.032 10.512C161.34 11.0813 161.494 11.7487 161.494 12.514V16.756C161.494 17.4 161.308 17.9087 160.934 18.282C160.561 18.6553 160.052 18.842 159.408 18.842H155.53ZM157.756 14.684C158.186 14.684 158.554 14.586 158.862 14.39C159.18 14.1847 159.422 13.914 159.59 13.578C159.768 13.2327 159.856 12.85 159.856 12.43C159.856 11.982 159.772 11.5807 159.604 11.226C159.436 10.8713 159.194 10.5913 158.876 10.386C158.568 10.1713 158.195 10.064 157.756 10.064C157.327 10.064 156.954 10.1713 156.636 10.386C156.328 10.5913 156.09 10.8713 155.922 11.226C155.754 11.5713 155.67 11.9633 155.67 12.402C155.67 12.822 155.754 13.2047 155.922 13.55C156.09 13.8953 156.328 14.1707 156.636 14.376C156.954 14.5813 157.327 14.684 157.756 14.684ZM166.735 16V14.53H169.815C170.151 14.53 170.445 14.4507 170.697 14.292C170.959 14.1333 171.159 13.9233 171.299 13.662C171.449 13.4007 171.523 13.1207 171.523 12.822C171.523 12.514 171.449 12.234 171.299 11.982C171.159 11.73 170.963 11.5293 170.711 11.38C170.459 11.2307 170.17 11.156 169.843 11.156H167.015V6.2H172.545V7.67H168.611V9.714H170.053C170.651 9.714 171.183 9.85867 171.649 10.148C172.125 10.428 172.499 10.806 172.769 11.282C173.049 11.758 173.189 12.276 173.189 12.836C173.189 13.4053 173.049 13.9327 172.769 14.418C172.489 14.894 172.111 15.2767 171.635 15.566C171.159 15.8553 170.623 16 170.025 16H166.735ZM178.407 16.168C177.717 16.168 177.096 16.0187 176.545 15.72C175.995 15.4213 175.561 15.0107 175.243 14.488C174.926 13.9653 174.767 13.382 174.767 12.738V9.462C174.767 8.818 174.926 8.23933 175.243 7.726C175.561 7.20333 175.995 6.79267 176.545 6.494C177.096 6.186 177.717 6.032 178.407 6.032C179.089 6.032 179.7 6.186 180.241 6.494C180.792 6.79267 181.226 7.20333 181.543 7.726C181.861 8.23933 182.019 8.818 182.019 9.462V12.738C182.019 13.382 181.861 13.9653 181.543 14.488C181.226 15.0013 180.792 15.412 180.241 15.72C179.7 16.0187 179.089 16.168 178.407 16.168ZM178.407 14.698C178.762 14.698 179.084 14.6187 179.373 14.46C179.672 14.292 179.905 14.068 180.073 13.788C180.251 13.508 180.339 13.2 180.339 12.864V9.336C180.339 8.99067 180.251 8.68267 180.073 8.412C179.896 8.14133 179.663 7.922 179.373 7.754C179.084 7.586 178.762 7.502 178.407 7.502C178.053 7.502 177.721 7.586 177.413 7.754C177.115 7.91267 176.877 8.132 176.699 8.412C176.522 8.692 176.433 9 176.433 9.336V12.864C176.433 13.2 176.522 13.508 176.699 13.788C176.877 14.068 177.115 14.292 177.413 14.46C177.712 14.6187 178.043 14.698 178.407 14.698ZM185.988 11.45C185.558 11.45 185.162 11.3567 184.798 11.17C184.443 10.974 184.154 10.7127 183.93 10.386C183.715 10.0593 183.608 9.69067 183.608 9.28V8.188C183.608 7.77733 183.715 7.40867 183.93 7.082C184.154 6.75533 184.443 6.49867 184.798 6.312C185.162 6.12533 185.558 6.032 185.988 6.032C186.426 6.032 186.823 6.12533 187.178 6.312C187.542 6.49867 187.831 6.75533 188.046 7.082C188.26 7.40867 188.368 7.77733 188.368 8.188V9.28C188.368 9.69067 188.26 10.0593 188.046 10.386C187.831 10.7127 187.542 10.974 187.178 11.17C186.823 11.3567 186.426 11.45 185.988 11.45ZM186.002 10.302C186.198 10.302 186.38 10.2553 186.548 10.162C186.725 10.0593 186.865 9.924 186.968 9.756C187.08 9.57867 187.136 9.378 187.136 9.154V8.314C187.136 8.09 187.08 7.894 186.968 7.726C186.865 7.54867 186.725 7.40867 186.548 7.306C186.38 7.20333 186.198 7.152 186.002 7.152C185.796 7.152 185.605 7.20333 185.428 7.306C185.26 7.40867 185.12 7.54867 185.008 7.726C184.905 7.894 184.854 8.09 184.854 8.314V9.154C184.854 9.378 184.905 9.57867 185.008 9.756C185.12 9.924 185.26 10.0593 185.428 10.162C185.605 10.2553 185.796 10.302 186.002 10.302ZM192.638 16.168C192.208 16.168 191.812 16.0747 191.448 15.888C191.084 15.692 190.794 15.4307 190.58 15.104C190.365 14.7773 190.258 14.4133 190.258 14.012V12.92C190.258 12.5093 190.365 12.1407 190.58 11.814C190.794 11.478 191.084 11.2167 191.448 11.03C191.812 10.8433 192.208 10.75 192.638 10.75C193.067 10.75 193.459 10.8433 193.814 11.03C194.178 11.2167 194.467 11.478 194.682 11.814C194.906 12.1407 195.018 12.5093 195.018 12.92V14.012C195.018 14.4133 194.906 14.7773 194.682 15.104C194.467 15.4307 194.178 15.692 193.814 15.888C193.459 16.0747 193.067 16.168 192.638 16.168ZM192.652 15.02C192.848 15.02 193.03 14.9733 193.198 14.88C193.375 14.7773 193.515 14.642 193.618 14.474C193.73 14.306 193.786 14.1053 193.786 13.872V13.032C193.786 12.808 193.73 12.612 193.618 12.444C193.515 12.2667 193.375 12.1313 193.198 12.038C193.03 11.9353 192.848 11.884 192.652 11.884C192.446 11.884 192.255 11.9353 192.078 12.038C191.91 12.1313 191.77 12.2667 191.658 12.444C191.555 12.612 191.504 12.808 191.504 13.032V13.872C191.504 14.1053 191.555 14.306 191.658 14.474C191.77 14.642 191.91 14.7773 192.078 14.88C192.255 14.9733 192.446 15.02 192.652 15.02ZM185.33 16L191.994 6.2H193.268L186.604 16H185.33Z" fill="#8A8A8A"/>
<rect x="0.5" y="26.5" width="299" height="36" rx="4.5" stroke="#F2F2F2"/>
<rect x="4" y="30" width="14" height="29" rx="5" fill="#CB11FF"/>
<rect x="22" y="30" width="14" height="29" rx="5" fill="#CB11FF"/>
<rect x="40" y="30" width="14" height="29" rx="5" fill="#CB11FF"/>
<rect x="58" y="30" width="14" height="29" rx="5" fill="#CB11FF"/>
<rect x="76" y="30" width="14" height="29" rx="5" fill="#CB11FF"/>
<rect x="94" y="30" width="14" height="29" rx="5" fill="#CB11FF"/>
<rect x="112" y="30" width="14" height="29" rx="5" fill="#CB11FF"/>
<rect x="130" y="30" width="14" height="29" rx="5" fill="#CB11FF"/>
</svg>
