<svg width="300" height="113" viewBox="0 0 300 113" fill="none" xmlns="http://www.w3.org/2000/svg">
<g clip-path="url(#clip0_54_137)">
<path d="M49.057 23.7727L27.2266 1.94341C25.9701 0.686182 23.9311 0.686182 22.673 1.94341L18.1398 6.47661L23.8904 12.2272C25.2268 11.7756 26.7592 12.0786 27.8244 13.1438C28.8947 14.2159 29.1955 15.7614 28.733 17.102L34.275 22.6442C35.6158 22.1823 37.1629 22.4811 38.2338 23.5538C39.7305 25.0499 39.7305 27.4747 38.2338 28.9717C36.7367 30.469 34.3119 30.469 32.8141 28.9717C31.6883 27.8448 31.4102 26.1915 31.9801 24.8045L26.8117 19.6362L26.8111 33.2372C27.1858 33.4224 27.528 33.6671 27.8244 33.9618C29.3211 35.4579 29.3211 37.8829 27.8244 39.3811C26.3273 40.8776 23.9014 40.8776 22.4064 39.3811C20.9098 37.8829 20.9098 35.4581 22.4064 33.962C22.7651 33.6031 23.1914 33.3189 23.6605 33.1258V19.3981C23.1907 19.2063 22.7642 18.9219 22.4064 18.562C21.2725 17.4295 20.9998 15.7657 21.5809 14.3733L15.9121 8.70396L0.943359 23.6717C-0.314453 24.9301 -0.314453 26.9694 0.943359 28.2268L22.7742 50.0565C24.0311 51.3139 26.0697 51.3139 27.3281 50.0565L49.0568 28.3282C50.3143 27.0704 50.3143 25.0299 49.0568 23.7727" fill="url(#paint0_linear_54_137)"/>
</g>
<path d="M101.64 66C101.089 66 100.604 65.8787 100.184 65.636C99.7733 65.384 99.4513 65.048 99.218 64.628C98.994 64.208 98.882 63.7413 98.882 63.228V56.2H100.562V63.438C100.562 63.7367 100.66 63.9933 100.856 64.208C101.061 64.4227 101.323 64.53 101.64 64.53H104.244V66H101.64ZM108.958 66.168C108.221 66.168 107.567 66.0047 106.998 65.678C106.429 65.342 105.976 64.894 105.64 64.334C105.313 63.7647 105.15 63.13 105.15 62.43C105.15 61.73 105.313 61.1 105.64 60.54C105.976 59.9707 106.429 59.5227 106.998 59.196C107.567 58.86 108.221 58.692 108.958 58.692C109.686 58.692 110.335 58.86 110.904 59.196C111.473 59.5227 111.921 59.966 112.248 60.526C112.584 61.086 112.752 61.7207 112.752 62.43C112.752 63.13 112.584 63.7647 112.248 64.334C111.921 64.894 111.473 65.342 110.904 65.678C110.335 66.0047 109.686 66.168 108.958 66.168ZM108.958 64.796C109.397 64.796 109.779 64.6933 110.106 64.488C110.433 64.2733 110.685 63.9887 110.862 63.634C111.039 63.2793 111.128 62.878 111.128 62.43C111.128 61.9913 111.039 61.5947 110.862 61.24C110.685 60.876 110.433 60.5913 110.106 60.386C109.779 60.1713 109.397 60.064 108.958 60.064C108.51 60.064 108.123 60.1713 107.796 60.386C107.479 60.5913 107.227 60.8713 107.04 61.226C106.863 61.5807 106.774 61.982 106.774 62.43C106.774 62.8687 106.863 63.27 107.04 63.634C107.227 63.9887 107.479 64.2733 107.796 64.488C108.123 64.6933 108.51 64.796 108.958 64.796ZM117.177 66.168C116.495 66.168 115.907 66 115.413 65.664C114.918 65.328 114.535 64.88 114.265 64.32C114.003 63.7507 113.873 63.1253 113.873 62.444C113.873 61.7347 114.022 61.1 114.321 60.54C114.629 59.9707 115.063 59.5227 115.623 59.196C116.192 58.86 116.869 58.692 117.653 58.692C118.427 58.692 119.085 58.86 119.627 59.196C120.177 59.5227 120.597 59.9707 120.887 60.54C121.185 61.1 121.335 61.7253 121.335 62.416V66H119.725V64.67H119.697C119.557 64.9313 119.375 65.1787 119.151 65.412C118.927 65.636 118.651 65.818 118.325 65.958C117.998 66.098 117.615 66.168 117.177 66.168ZM117.611 64.796C118.031 64.796 118.395 64.6933 118.703 64.488C119.02 64.2733 119.267 63.9887 119.445 63.634C119.622 63.27 119.706 62.864 119.697 62.416C119.697 61.968 119.613 61.5713 119.445 61.226C119.277 60.8713 119.039 60.5913 118.731 60.386C118.423 60.1713 118.054 60.064 117.625 60.064C117.177 60.064 116.794 60.1713 116.477 60.386C116.159 60.5913 115.917 60.8713 115.749 61.226C115.581 61.5807 115.497 61.982 115.497 62.43C115.497 62.8687 115.581 63.27 115.749 63.634C115.917 63.9887 116.155 64.2733 116.463 64.488C116.78 64.6933 117.163 64.796 117.611 64.796ZM126.579 66.168C126.01 66.168 125.492 66.0793 125.025 65.902C124.568 65.7153 124.176 65.4493 123.849 65.104C123.532 64.7587 123.284 64.3527 123.107 63.886C122.939 63.41 122.855 62.8873 122.855 62.318C122.855 61.59 123 60.9553 123.289 60.414C123.588 59.8727 123.998 59.4527 124.521 59.154C125.044 58.846 125.641 58.692 126.313 58.692C126.649 58.692 126.966 58.7433 127.265 58.846C127.564 58.9487 127.834 59.0933 128.077 59.28C128.32 59.4667 128.516 59.686 128.665 59.938H128.679V55.78H130.289V62.346C130.289 63.13 130.13 63.8113 129.813 64.39C129.505 64.9593 129.071 65.398 128.511 65.706C127.96 66.014 127.316 66.168 126.579 66.168ZM126.579 64.796C126.99 64.796 127.349 64.698 127.657 64.502C127.974 64.2967 128.222 64.0167 128.399 63.662C128.576 63.3073 128.665 62.8967 128.665 62.43C128.665 61.9633 128.576 61.5527 128.399 61.198C128.222 60.8433 127.974 60.568 127.657 60.372C127.349 60.1667 126.985 60.064 126.565 60.064C126.164 60.064 125.804 60.1667 125.487 60.372C125.17 60.5773 124.922 60.8573 124.745 61.212C124.568 61.5667 124.479 61.9727 124.479 62.43C124.479 62.8967 124.568 63.3073 124.745 63.662C124.922 64.0167 125.17 64.2967 125.487 64.502C125.814 64.698 126.178 64.796 126.579 64.796ZM132.161 66V58.86H133.771V66H132.161ZM132.959 57.866C132.679 57.866 132.437 57.7633 132.231 57.558C132.026 57.3527 131.923 57.11 131.923 56.83C131.923 56.55 132.026 56.3073 132.231 56.102C132.437 55.8967 132.679 55.794 132.959 55.794C133.249 55.794 133.491 55.8967 133.687 56.102C133.893 56.3073 133.995 56.55 133.995 56.83C133.995 57.11 133.893 57.3527 133.687 57.558C133.491 57.7633 133.249 57.866 132.959 57.866ZM135.702 66V61.884C135.702 61.268 135.842 60.722 136.122 60.246C136.402 59.7607 136.799 59.3827 137.312 59.112C137.826 58.832 138.428 58.692 139.118 58.692C139.809 58.692 140.406 58.832 140.91 59.112C141.424 59.3827 141.82 59.7607 142.1 60.246C142.38 60.722 142.52 61.268 142.52 61.884V66H140.924V61.898C140.924 61.534 140.84 61.2167 140.672 60.946C140.504 60.666 140.28 60.4513 140 60.302C139.73 60.1433 139.431 60.064 139.104 60.064C138.787 60.064 138.488 60.1433 138.208 60.302C137.938 60.4513 137.718 60.666 137.55 60.946C137.392 61.2167 137.312 61.534 137.312 61.898V66H135.702ZM145.53 68.842V67.47H149.114C149.357 67.47 149.544 67.3953 149.674 67.246C149.814 67.0967 149.884 66.91 149.884 66.686V64.838H149.87C149.665 65.09 149.446 65.3093 149.212 65.496C148.979 65.6733 148.713 65.8133 148.414 65.916C148.125 66.0093 147.803 66.056 147.448 66.056C146.795 66.056 146.212 65.902 145.698 65.594C145.185 65.286 144.779 64.8567 144.48 64.306C144.191 63.746 144.046 63.1067 144.046 62.388C144.046 61.688 144.191 61.0627 144.48 60.512C144.779 59.952 145.204 59.5087 145.754 59.182C146.305 58.8553 146.977 58.692 147.77 58.692C148.526 58.692 149.18 58.8507 149.73 59.168C150.29 59.4853 150.724 59.9333 151.032 60.512C151.34 61.0813 151.494 61.7487 151.494 62.514V66.756C151.494 67.4 151.308 67.9087 150.934 68.282C150.561 68.6553 150.052 68.842 149.408 68.842H145.53ZM147.756 64.684C148.186 64.684 148.554 64.586 148.862 64.39C149.18 64.1847 149.422 63.914 149.59 63.578C149.768 63.2327 149.856 62.85 149.856 62.43C149.856 61.982 149.772 61.5807 149.604 61.226C149.436 60.8713 149.194 60.5913 148.876 60.386C148.568 60.1713 148.195 60.064 147.756 60.064C147.327 60.064 146.954 60.1713 146.636 60.386C146.328 60.5913 146.09 60.8713 145.922 61.226C145.754 61.5713 145.67 61.9633 145.67 62.402C145.67 62.822 145.754 63.2047 145.922 63.55C146.09 63.8953 146.328 64.1707 146.636 64.376C146.954 64.5813 147.327 64.684 147.756 64.684ZM156.833 66V64.53H160.151C160.422 64.53 160.66 64.4693 160.865 64.348C161.071 64.2173 161.229 64.0447 161.341 63.83C161.463 63.6153 161.523 63.3867 161.523 63.144C161.523 62.892 161.463 62.6633 161.341 62.458C161.229 62.2433 161.066 62.0707 160.851 61.94C160.637 61.8093 160.389 61.744 160.109 61.744H157.323V60.26H160.193C160.464 60.26 160.697 60.204 160.893 60.092C161.089 59.9707 161.243 59.812 161.355 59.616C161.467 59.42 161.523 59.2053 161.523 58.972C161.523 58.7387 161.467 58.524 161.355 58.328C161.243 58.132 161.089 57.9733 160.893 57.852C160.697 57.7307 160.464 57.67 160.193 57.67H156.833V56.2H160.403C160.935 56.2 161.411 56.326 161.831 56.578C162.251 56.83 162.583 57.166 162.825 57.586C163.068 57.9967 163.189 58.4587 163.189 58.972C163.189 59.392 163.087 59.784 162.881 60.148C162.685 60.5027 162.415 60.8013 162.069 61.044C162.312 61.1933 162.517 61.38 162.685 61.604C162.853 61.828 162.979 62.0707 163.063 62.332C163.147 62.5933 163.189 62.864 163.189 63.144C163.189 63.6573 163.068 64.1333 162.825 64.572C162.583 65.0013 162.247 65.3467 161.817 65.608C161.388 65.8693 160.903 66 160.361 66H156.833ZM168.517 66.168C167.826 66.168 167.205 66.0187 166.655 65.72C166.104 65.4213 165.67 65.0107 165.353 64.488C165.035 63.9653 164.877 63.382 164.877 62.738V59.462C164.877 58.818 165.035 58.2393 165.353 57.726C165.67 57.2033 166.104 56.7927 166.655 56.494C167.205 56.186 167.826 56.032 168.517 56.032C169.198 56.032 169.809 56.186 170.351 56.494C170.901 56.7927 171.335 57.2033 171.653 57.726C171.97 58.2393 172.129 58.818 172.129 59.462V62.738C172.129 63.382 171.97 63.9653 171.653 64.488C171.335 65.0013 170.901 65.412 170.351 65.72C169.809 66.0187 169.198 66.168 168.517 66.168ZM168.517 64.698C168.871 64.698 169.193 64.6187 169.483 64.46C169.781 64.292 170.015 64.068 170.183 63.788C170.36 63.508 170.449 63.2 170.449 62.864V59.336C170.449 58.9907 170.36 58.6827 170.183 58.412C170.005 58.1413 169.772 57.922 169.483 57.754C169.193 57.586 168.871 57.502 168.517 57.502C168.162 57.502 167.831 57.586 167.523 57.754C167.224 57.9127 166.986 58.132 166.809 58.412C166.631 58.692 166.543 59 166.543 59.336V62.864C166.543 63.2 166.631 63.508 166.809 63.788C166.986 64.068 167.224 64.292 167.523 64.46C167.821 64.6187 168.153 64.698 168.517 64.698ZM176.097 61.45C175.668 61.45 175.271 61.3567 174.907 61.17C174.552 60.974 174.263 60.7127 174.039 60.386C173.824 60.0593 173.717 59.6907 173.717 59.28V58.188C173.717 57.7773 173.824 57.4087 174.039 57.082C174.263 56.7553 174.552 56.4987 174.907 56.312C175.271 56.1253 175.668 56.032 176.097 56.032C176.536 56.032 176.932 56.1253 177.287 56.312C177.651 56.4987 177.94 56.7553 178.155 57.082C178.37 57.4087 178.477 57.7773 178.477 58.188V59.28C178.477 59.6907 178.37 60.0593 178.155 60.386C177.94 60.7127 177.651 60.974 177.287 61.17C176.932 61.3567 176.536 61.45 176.097 61.45ZM176.111 60.302C176.307 60.302 176.489 60.2553 176.657 60.162C176.834 60.0593 176.974 59.924 177.077 59.756C177.189 59.5787 177.245 59.378 177.245 59.154V58.314C177.245 58.09 177.189 57.894 177.077 57.726C176.974 57.5487 176.834 57.4087 176.657 57.306C176.489 57.2033 176.307 57.152 176.111 57.152C175.906 57.152 175.714 57.2033 175.537 57.306C175.369 57.4087 175.229 57.5487 175.117 57.726C175.014 57.894 174.963 58.09 174.963 58.314V59.154C174.963 59.378 175.014 59.5787 175.117 59.756C175.229 59.924 175.369 60.0593 175.537 60.162C175.714 60.2553 175.906 60.302 176.111 60.302ZM182.747 66.168C182.318 66.168 181.921 66.0747 181.557 65.888C181.193 65.692 180.904 65.4307 180.689 65.104C180.474 64.7773 180.367 64.4133 180.367 64.012V62.92C180.367 62.5093 180.474 62.1407 180.689 61.814C180.904 61.478 181.193 61.2167 181.557 61.03C181.921 60.8433 182.318 60.75 182.747 60.75C183.176 60.75 183.568 60.8433 183.923 61.03C184.287 61.2167 184.576 61.478 184.791 61.814C185.015 62.1407 185.127 62.5093 185.127 62.92V64.012C185.127 64.4133 185.015 64.7773 184.791 65.104C184.576 65.4307 184.287 65.692 183.923 65.888C183.568 66.0747 183.176 66.168 182.747 66.168ZM182.761 65.02C182.957 65.02 183.139 64.9733 183.307 64.88C183.484 64.7773 183.624 64.642 183.727 64.474C183.839 64.306 183.895 64.1053 183.895 63.872V63.032C183.895 62.808 183.839 62.612 183.727 62.444C183.624 62.2667 183.484 62.1313 183.307 62.038C183.139 61.9353 182.957 61.884 182.761 61.884C182.556 61.884 182.364 61.9353 182.187 62.038C182.019 62.1313 181.879 62.2667 181.767 62.444C181.664 62.612 181.613 62.808 181.613 63.032V63.872C181.613 64.1053 181.664 64.306 181.767 64.474C181.879 64.642 182.019 64.7773 182.187 64.88C182.364 64.9733 182.556 65.02 182.761 65.02ZM175.439 66L182.103 56.2H183.377L176.713 66H175.439Z" fill="#8A8A8A"/>
<rect x="0.5" y="76.5" width="299" height="36" rx="4.5" stroke="white"/>
<rect x="4.5" y="79.5" width="13" height="28" rx="4.5" fill="#CB11FF" stroke="#CB11FF"/>
<rect x="22.5" y="79.5" width="13" height="28" rx="4.5" fill="#CB11FF" stroke="#CB11FF"/>
<rect x="40.5" y="79.5" width="13" height="28" rx="4.5" fill="#CB11FF" stroke="#CB11FF"/>
<rect x="58.5" y="79.5" width="13" height="28" rx="4.5" fill="#CB11FF" stroke="#CB11FF"/>
<rect x="76.5" y="79.5" width="13" height="28" rx="4.5" fill="#CB11FF" stroke="#CB11FF"/>
<rect x="94.5" y="79.5" width="13" height="28" rx="4.5" fill="#CB11FF" stroke="#CB11FF"/>
<defs>
<linearGradient id="paint0_linear_54_137" x1="25" y1="50.9996" x2="25" y2="1.00049" gradientUnits="userSpaceOnUse">
<stop offset="0.1875" stop-color="#CB11FF"/>
<stop offset="0.625" stop-color="#A00BE7"/>
</linearGradient>
<clipPath id="clip0_54_137">
<rect width="50" height="50" fill="white"/>
</clipPath>
</defs>
</svg>
