<svg width="300" height="122" viewBox="0 0 300 122" fill="none" xmlns="http://www.w3.org/2000/svg">
<g clip-path="url(#clip0_54_138)">
<path d="M10.5033 59.0002C16.2975 59.0002 21 54.5948 21 49.1668V39.3335H10.5033C4.70912 39.3335 0.0065918 43.7388 0.0065918 49.1668C0.0065918 54.5948 4.70912 59.0002 10.5033 59.0002Z" fill="#7B05D9"/>
<path d="M0.0065918 29.4998C0.0065918 24.0718 4.70912 19.6665 10.5033 19.6665H21V39.3332H10.5033C4.70912 39.3332 0.0065918 34.9278 0.0065918 29.4998Z" fill="#7B05D9"/>
<path d="M0.0065918 9.83333C0.0065918 4.40533 4.70912 0 10.5033 0H21V19.6667H10.5033C4.70912 19.6667 0.0065918 15.2613 0.0065918 9.83333Z" fill="#7B05D9"/>
<path d="M21 0H31.4967C37.2909 0 41.9934 4.40533 41.9934 9.83333C41.9934 15.2613 37.2909 19.6667 31.4967 19.6667H21V0Z" fill="#CB11FF"/>
<path d="M41.9934 29.4998C41.9934 34.9278 37.2909 39.3332 31.4967 39.3332C25.7025 39.3332 21 34.9278 21 29.4998C21 24.0718 25.7025 19.6665 31.4967 19.6665C37.2909 19.6665 41.9934 24.0718 41.9934 29.4998Z" fill="#CB11FF"/>
</g>
<path d="M101.64 75C101.089 75 100.604 74.8787 100.184 74.636C99.7733 74.384 99.4513 74.048 99.218 73.628C98.994 73.208 98.882 72.7413 98.882 72.228V65.2H100.562V72.438C100.562 72.7367 100.66 72.9933 100.856 73.208C101.061 73.4227 101.323 73.53 101.64 73.53H104.244V75H101.64ZM108.958 75.168C108.221 75.168 107.567 75.0047 106.998 74.678C106.429 74.342 105.976 73.894 105.64 73.334C105.313 72.7647 105.15 72.13 105.15 71.43C105.15 70.73 105.313 70.1 105.64 69.54C105.976 68.9707 106.429 68.5227 106.998 68.196C107.567 67.86 108.221 67.692 108.958 67.692C109.686 67.692 110.335 67.86 110.904 68.196C111.473 68.5227 111.921 68.966 112.248 69.526C112.584 70.086 112.752 70.7207 112.752 71.43C112.752 72.13 112.584 72.7647 112.248 73.334C111.921 73.894 111.473 74.342 110.904 74.678C110.335 75.0047 109.686 75.168 108.958 75.168ZM108.958 73.796C109.397 73.796 109.779 73.6933 110.106 73.488C110.433 73.2733 110.685 72.9887 110.862 72.634C111.039 72.2793 111.128 71.878 111.128 71.43C111.128 70.9913 111.039 70.5947 110.862 70.24C110.685 69.876 110.433 69.5913 110.106 69.386C109.779 69.1713 109.397 69.064 108.958 69.064C108.51 69.064 108.123 69.1713 107.796 69.386C107.479 69.5913 107.227 69.8713 107.04 70.226C106.863 70.5807 106.774 70.982 106.774 71.43C106.774 71.8687 106.863 72.27 107.04 72.634C107.227 72.9887 107.479 73.2733 107.796 73.488C108.123 73.6933 108.51 73.796 108.958 73.796ZM117.177 75.168C116.495 75.168 115.907 75 115.413 74.664C114.918 74.328 114.535 73.88 114.265 73.32C114.003 72.7507 113.873 72.1253 113.873 71.444C113.873 70.7347 114.022 70.1 114.321 69.54C114.629 68.9707 115.063 68.5227 115.623 68.196C116.192 67.86 116.869 67.692 117.653 67.692C118.427 67.692 119.085 67.86 119.627 68.196C120.177 68.5227 120.597 68.9707 120.887 69.54C121.185 70.1 121.335 70.7253 121.335 71.416V75H119.725V73.67H119.697C119.557 73.9313 119.375 74.1787 119.151 74.412C118.927 74.636 118.651 74.818 118.325 74.958C117.998 75.098 117.615 75.168 117.177 75.168ZM117.611 73.796C118.031 73.796 118.395 73.6933 118.703 73.488C119.02 73.2733 119.267 72.9887 119.445 72.634C119.622 72.27 119.706 71.864 119.697 71.416C119.697 70.968 119.613 70.5713 119.445 70.226C119.277 69.8713 119.039 69.5913 118.731 69.386C118.423 69.1713 118.054 69.064 117.625 69.064C117.177 69.064 116.794 69.1713 116.477 69.386C116.159 69.5913 115.917 69.8713 115.749 70.226C115.581 70.5807 115.497 70.982 115.497 71.43C115.497 71.8687 115.581 72.27 115.749 72.634C115.917 72.9887 116.155 73.2733 116.463 73.488C116.78 73.6933 117.163 73.796 117.611 73.796ZM126.579 75.168C126.01 75.168 125.492 75.0793 125.025 74.902C124.568 74.7153 124.176 74.4493 123.849 74.104C123.532 73.7587 123.284 73.3527 123.107 72.886C122.939 72.41 122.855 71.8873 122.855 71.318C122.855 70.59 123 69.9553 123.289 69.414C123.588 68.8727 123.998 68.4527 124.521 68.154C125.044 67.846 125.641 67.692 126.313 67.692C126.649 67.692 126.966 67.7433 127.265 67.846C127.564 67.9487 127.834 68.0933 128.077 68.28C128.32 68.4667 128.516 68.686 128.665 68.938H128.679V64.78H130.289V71.346C130.289 72.13 130.13 72.8113 129.813 73.39C129.505 73.9593 129.071 74.398 128.511 74.706C127.96 75.014 127.316 75.168 126.579 75.168ZM126.579 73.796C126.99 73.796 127.349 73.698 127.657 73.502C127.974 73.2967 128.222 73.0167 128.399 72.662C128.576 72.3073 128.665 71.8967 128.665 71.43C128.665 70.9633 128.576 70.5527 128.399 70.198C128.222 69.8433 127.974 69.568 127.657 69.372C127.349 69.1667 126.985 69.064 126.565 69.064C126.164 69.064 125.804 69.1667 125.487 69.372C125.17 69.5773 124.922 69.8573 124.745 70.212C124.568 70.5667 124.479 70.9727 124.479 71.43C124.479 71.8967 124.568 72.3073 124.745 72.662C124.922 73.0167 125.17 73.2967 125.487 73.502C125.814 73.698 126.178 73.796 126.579 73.796ZM132.161 75V67.86H133.771V75H132.161ZM132.959 66.866C132.679 66.866 132.437 66.7633 132.231 66.558C132.026 66.3527 131.923 66.11 131.923 65.83C131.923 65.55 132.026 65.3073 132.231 65.102C132.437 64.8967 132.679 64.794 132.959 64.794C133.249 64.794 133.491 64.8967 133.687 65.102C133.893 65.3073 133.995 65.55 133.995 65.83C133.995 66.11 133.893 66.3527 133.687 66.558C133.491 66.7633 133.249 66.866 132.959 66.866ZM135.702 75V70.884C135.702 70.268 135.842 69.722 136.122 69.246C136.402 68.7607 136.799 68.3827 137.312 68.112C137.826 67.832 138.428 67.692 139.118 67.692C139.809 67.692 140.406 67.832 140.91 68.112C141.424 68.3827 141.82 68.7607 142.1 69.246C142.38 69.722 142.52 70.268 142.52 70.884V75H140.924V70.898C140.924 70.534 140.84 70.2167 140.672 69.946C140.504 69.666 140.28 69.4513 140 69.302C139.73 69.1433 139.431 69.064 139.104 69.064C138.787 69.064 138.488 69.1433 138.208 69.302C137.938 69.4513 137.718 69.666 137.55 69.946C137.392 70.2167 137.312 70.534 137.312 70.898V75H135.702ZM145.53 77.842V76.47H149.114C149.357 76.47 149.544 76.3953 149.674 76.246C149.814 76.0967 149.884 75.91 149.884 75.686V73.838H149.87C149.665 74.09 149.446 74.3093 149.212 74.496C148.979 74.6733 148.713 74.8133 148.414 74.916C148.125 75.0093 147.803 75.056 147.448 75.056C146.795 75.056 146.212 74.902 145.698 74.594C145.185 74.286 144.779 73.8567 144.48 73.306C144.191 72.746 144.046 72.1067 144.046 71.388C144.046 70.688 144.191 70.0627 144.48 69.512C144.779 68.952 145.204 68.5087 145.754 68.182C146.305 67.8553 146.977 67.692 147.77 67.692C148.526 67.692 149.18 67.8507 149.73 68.168C150.29 68.4853 150.724 68.9333 151.032 69.512C151.34 70.0813 151.494 70.7487 151.494 71.514V75.756C151.494 76.4 151.308 76.9087 150.934 77.282C150.561 77.6553 150.052 77.842 149.408 77.842H145.53ZM147.756 73.684C148.186 73.684 148.554 73.586 148.862 73.39C149.18 73.1847 149.422 72.914 149.59 72.578C149.768 72.2327 149.856 71.85 149.856 71.43C149.856 70.982 149.772 70.5807 149.604 70.226C149.436 69.8713 149.194 69.5913 148.876 69.386C148.568 69.1713 148.195 69.064 147.756 69.064C147.327 69.064 146.954 69.1713 146.636 69.386C146.328 69.5913 146.09 69.8713 145.922 70.226C145.754 70.5713 145.67 70.9633 145.67 71.402C145.67 71.822 145.754 72.2047 145.922 72.55C146.09 72.8953 146.328 73.1707 146.636 73.376C146.954 73.5813 147.327 73.684 147.756 73.684ZM161.537 75V72.844H158.541C158.196 72.844 157.883 72.7647 157.603 72.606C157.333 72.438 157.113 72.2233 156.945 71.962C156.787 71.6913 156.707 71.402 156.707 71.094C156.707 70.9167 156.731 70.7393 156.777 70.562C156.824 70.3847 156.885 70.2213 156.959 70.072L159.591 65.2H161.481L158.471 70.66C158.443 70.7253 158.42 70.7813 158.401 70.828C158.392 70.8747 158.387 70.9307 158.387 70.996C158.387 71.0987 158.415 71.1873 158.471 71.262C158.537 71.3273 158.63 71.36 158.751 71.36H161.537V67.944H163.203V71.36H164.505V72.844H163.203V75H161.537ZM169.665 75.168C168.975 75.168 168.354 75.0187 167.803 74.72C167.253 74.4213 166.819 74.0107 166.501 73.488C166.184 72.9653 166.025 72.382 166.025 71.738V68.462C166.025 67.818 166.184 67.2393 166.501 66.726C166.819 66.2033 167.253 65.7927 167.803 65.494C168.354 65.186 168.975 65.032 169.665 65.032C170.347 65.032 170.958 65.186 171.499 65.494C172.05 65.7927 172.484 66.2033 172.801 66.726C173.119 67.2393 173.277 67.818 173.277 68.462V71.738C173.277 72.382 173.119 72.9653 172.801 73.488C172.484 74.0013 172.05 74.412 171.499 74.72C170.958 75.0187 170.347 75.168 169.665 75.168ZM169.665 73.698C170.02 73.698 170.342 73.6187 170.631 73.46C170.93 73.292 171.163 73.068 171.331 72.788C171.509 72.508 171.597 72.2 171.597 71.864V68.336C171.597 67.9907 171.509 67.6827 171.331 67.412C171.154 67.1413 170.921 66.922 170.631 66.754C170.342 66.586 170.02 66.502 169.665 66.502C169.311 66.502 168.979 66.586 168.671 66.754C168.373 66.9127 168.135 67.132 167.957 67.412C167.78 67.692 167.691 68 167.691 68.336V71.864C167.691 72.2 167.78 72.508 167.957 72.788C168.135 73.068 168.373 73.292 168.671 73.46C168.97 73.6187 169.301 73.698 169.665 73.698ZM177.245 70.45C176.816 70.45 176.419 70.3567 176.055 70.17C175.701 69.974 175.411 69.7127 175.187 69.386C174.973 69.0593 174.865 68.6907 174.865 68.28V67.188C174.865 66.7773 174.973 66.4087 175.187 66.082C175.411 65.7553 175.701 65.4987 176.055 65.312C176.419 65.1253 176.816 65.032 177.245 65.032C177.684 65.032 178.081 65.1253 178.435 65.312C178.799 65.4987 179.089 65.7553 179.303 66.082C179.518 66.4087 179.625 66.7773 179.625 67.188V68.28C179.625 68.6907 179.518 69.0593 179.303 69.386C179.089 69.7127 178.799 69.974 178.435 70.17C178.081 70.3567 177.684 70.45 177.245 70.45ZM177.259 69.302C177.455 69.302 177.637 69.2553 177.805 69.162C177.983 69.0593 178.123 68.924 178.225 68.756C178.337 68.5787 178.393 68.378 178.393 68.154V67.314C178.393 67.09 178.337 66.894 178.225 66.726C178.123 66.5487 177.983 66.4087 177.805 66.306C177.637 66.2033 177.455 66.152 177.259 66.152C177.054 66.152 176.863 66.2033 176.685 66.306C176.517 66.4087 176.377 66.5487 176.265 66.726C176.163 66.894 176.111 67.09 176.111 67.314V68.154C176.111 68.378 176.163 68.5787 176.265 68.756C176.377 68.924 176.517 69.0593 176.685 69.162C176.863 69.2553 177.054 69.302 177.259 69.302ZM183.895 75.168C183.466 75.168 183.069 75.0747 182.705 74.888C182.341 74.692 182.052 74.4307 181.837 74.104C181.623 73.7773 181.515 73.4133 181.515 73.012V71.92C181.515 71.5093 181.623 71.1407 181.837 70.814C182.052 70.478 182.341 70.2167 182.705 70.03C183.069 69.8433 183.466 69.75 183.895 69.75C184.325 69.75 184.717 69.8433 185.071 70.03C185.435 70.2167 185.725 70.478 185.939 70.814C186.163 71.1407 186.275 71.5093 186.275 71.92V73.012C186.275 73.4133 186.163 73.7773 185.939 74.104C185.725 74.4307 185.435 74.692 185.071 74.888C184.717 75.0747 184.325 75.168 183.895 75.168ZM183.909 74.02C184.105 74.02 184.287 73.9733 184.455 73.88C184.633 73.7773 184.773 73.642 184.875 73.474C184.987 73.306 185.043 73.1053 185.043 72.872V72.032C185.043 71.808 184.987 71.612 184.875 71.444C184.773 71.2667 184.633 71.1313 184.455 71.038C184.287 70.9353 184.105 70.884 183.909 70.884C183.704 70.884 183.513 70.9353 183.335 71.038C183.167 71.1313 183.027 71.2667 182.915 71.444C182.813 71.612 182.761 71.808 182.761 72.032V72.872C182.761 73.1053 182.813 73.306 182.915 73.474C183.027 73.642 183.167 73.7773 183.335 73.88C183.513 73.9733 183.704 74.02 183.909 74.02ZM176.587 75L183.251 65.2H184.525L177.861 75H176.587Z" fill="#8A8A8A"/>
<rect x="0.5" y="85.5" width="299" height="36" rx="4.5" stroke="#F2F2F2"/>
<rect x="4" y="89" width="14" height="29" rx="5" fill="#CB11FF"/>
<rect x="22" y="89" width="14" height="29" rx="5" fill="#CB11FF"/>
<rect x="40" y="89" width="14" height="29" rx="5" fill="#CB11FF"/>
<rect x="58" y="89" width="14" height="29" rx="5" fill="#CB11FF"/>
<rect x="76" y="89" width="14" height="29" rx="5" fill="#CB11FF"/>
<defs>
<clipPath id="clip0_54_138">
<rect width="42" height="59" fill="white"/>
</clipPath>
</defs>
</svg>
