<svg width="300" height="138" viewBox="0 0 300 138" fill="none" xmlns="http://www.w3.org/2000/svg">
<g clip-path="url(#clip0_54_75)">
<path d="M29.9636 74.8106L5.55395 68.8019L0.114258 14.7021H59.886L54.4406 68.7936L29.9636 74.8106Z" fill="#7B05D9"/>
<path d="M49.7787 65.3492L54.4319 19.1255H30V70.2113L49.7787 65.3492Z" fill="#CB11FF"/>
<path d="M12.5845 39.1903L13.2551 45.8254H30.0001V39.1903H12.5845ZM11.2368 25.7607L11.917 32.3959H30.0001V25.7607H11.2368ZM30.0001 56.4224L29.9673 56.4301L21.6338 54.4348L21.101 49.1431H13.5894L14.6376 59.5612L29.9656 63.3341L30.0001 63.3258V56.4224Z" fill="#E6E6E6"/>
<path d="M14.1812 0H23.2438V3.36066H17.9712V6.72133H23.2443V10.0818H14.1812V0ZM25.0566 0H34.1194V2.9223H28.8466V3.50672H34.1194V10.228H25.0568V7.15928H30.3297V6.57486H25.0563V0H25.0566ZM35.9322 0H44.9951V2.9223H39.7222V3.50672H44.9951V10.228H35.9322V7.15928H41.2051V6.57486H35.9324V0H35.9322Z" fill="url(#paint0_linear_54_75)"/>
<path d="M47.3677 39.1903L48.7184 25.7607H29.9741V32.3959H40.518L39.8371 39.1903H29.9741V45.8254H39.1883L38.3196 54.4307L29.9739 56.4281V63.331L45.3141 59.5612L45.4265 58.4402L47.1852 40.972L47.3677 39.1903Z" fill="white"/>
</g>
<path d="M111.64 91C111.089 91 110.604 90.8787 110.184 90.636C109.773 90.384 109.451 90.048 109.218 89.628C108.994 89.208 108.882 88.7413 108.882 88.228V81.2H110.562V88.438C110.562 88.7367 110.66 88.9933 110.856 89.208C111.061 89.4227 111.323 89.53 111.64 89.53H114.244V91H111.64ZM118.958 91.168C118.221 91.168 117.567 91.0047 116.998 90.678C116.429 90.342 115.976 89.894 115.64 89.334C115.313 88.7647 115.15 88.13 115.15 87.43C115.15 86.73 115.313 86.1 115.64 85.54C115.976 84.9707 116.429 84.5227 116.998 84.196C117.567 83.86 118.221 83.692 118.958 83.692C119.686 83.692 120.335 83.86 120.904 84.196C121.473 84.5227 121.921 84.966 122.248 85.526C122.584 86.086 122.752 86.7207 122.752 87.43C122.752 88.13 122.584 88.7647 122.248 89.334C121.921 89.894 121.473 90.342 120.904 90.678C120.335 91.0047 119.686 91.168 118.958 91.168ZM118.958 89.796C119.397 89.796 119.779 89.6933 120.106 89.488C120.433 89.2733 120.685 88.9887 120.862 88.634C121.039 88.2793 121.128 87.878 121.128 87.43C121.128 86.9913 121.039 86.5947 120.862 86.24C120.685 85.876 120.433 85.5913 120.106 85.386C119.779 85.1713 119.397 85.064 118.958 85.064C118.51 85.064 118.123 85.1713 117.796 85.386C117.479 85.5913 117.227 85.8713 117.04 86.226C116.863 86.5807 116.774 86.982 116.774 87.43C116.774 87.8687 116.863 88.27 117.04 88.634C117.227 88.9887 117.479 89.2733 117.796 89.488C118.123 89.6933 118.51 89.796 118.958 89.796ZM127.177 91.168C126.495 91.168 125.907 91 125.413 90.664C124.918 90.328 124.535 89.88 124.265 89.32C124.003 88.7507 123.873 88.1253 123.873 87.444C123.873 86.7347 124.022 86.1 124.321 85.54C124.629 84.9707 125.063 84.5227 125.623 84.196C126.192 83.86 126.869 83.692 127.653 83.692C128.427 83.692 129.085 83.86 129.627 84.196C130.177 84.5227 130.597 84.9707 130.887 85.54C131.185 86.1 131.335 86.7253 131.335 87.416V91H129.725V89.67H129.697C129.557 89.9313 129.375 90.1787 129.151 90.412C128.927 90.636 128.651 90.818 128.325 90.958C127.998 91.098 127.615 91.168 127.177 91.168ZM127.611 89.796C128.031 89.796 128.395 89.6933 128.703 89.488C129.02 89.2733 129.267 88.9887 129.445 88.634C129.622 88.27 129.706 87.864 129.697 87.416C129.697 86.968 129.613 86.5713 129.445 86.226C129.277 85.8713 129.039 85.5913 128.731 85.386C128.423 85.1713 128.054 85.064 127.625 85.064C127.177 85.064 126.794 85.1713 126.477 85.386C126.159 85.5913 125.917 85.8713 125.749 86.226C125.581 86.5807 125.497 86.982 125.497 87.43C125.497 87.8687 125.581 88.27 125.749 88.634C125.917 88.9887 126.155 89.2733 126.463 89.488C126.78 89.6933 127.163 89.796 127.611 89.796ZM136.579 91.168C136.01 91.168 135.492 91.0793 135.025 90.902C134.568 90.7153 134.176 90.4493 133.849 90.104C133.532 89.7587 133.284 89.3527 133.107 88.886C132.939 88.41 132.855 87.8873 132.855 87.318C132.855 86.59 133 85.9553 133.289 85.414C133.588 84.8727 133.998 84.4527 134.521 84.154C135.044 83.846 135.641 83.692 136.313 83.692C136.649 83.692 136.966 83.7433 137.265 83.846C137.564 83.9487 137.834 84.0933 138.077 84.28C138.32 84.4667 138.516 84.686 138.665 84.938H138.679V80.78H140.289V87.346C140.289 88.13 140.13 88.8113 139.813 89.39C139.505 89.9593 139.071 90.398 138.511 90.706C137.96 91.014 137.316 91.168 136.579 91.168ZM136.579 89.796C136.99 89.796 137.349 89.698 137.657 89.502C137.974 89.2967 138.222 89.0167 138.399 88.662C138.576 88.3073 138.665 87.8967 138.665 87.43C138.665 86.9633 138.576 86.5527 138.399 86.198C138.222 85.8433 137.974 85.568 137.657 85.372C137.349 85.1667 136.985 85.064 136.565 85.064C136.164 85.064 135.804 85.1667 135.487 85.372C135.17 85.5773 134.922 85.8573 134.745 86.212C134.568 86.5667 134.479 86.9727 134.479 87.43C134.479 87.8967 134.568 88.3073 134.745 88.662C134.922 89.0167 135.17 89.2967 135.487 89.502C135.814 89.698 136.178 89.796 136.579 89.796ZM142.161 91V83.86H143.771V91H142.161ZM142.959 82.866C142.679 82.866 142.437 82.7633 142.231 82.558C142.026 82.3527 141.923 82.11 141.923 81.83C141.923 81.55 142.026 81.3073 142.231 81.102C142.437 80.8967 142.679 80.794 142.959 80.794C143.249 80.794 143.491 80.8967 143.687 81.102C143.893 81.3073 143.995 81.55 143.995 81.83C143.995 82.11 143.893 82.3527 143.687 82.558C143.491 82.7633 143.249 82.866 142.959 82.866ZM145.702 91V86.884C145.702 86.268 145.842 85.722 146.122 85.246C146.402 84.7607 146.799 84.3827 147.312 84.112C147.826 83.832 148.428 83.692 149.118 83.692C149.809 83.692 150.406 83.832 150.91 84.112C151.424 84.3827 151.82 84.7607 152.1 85.246C152.38 85.722 152.52 86.268 152.52 86.884V91H150.924V86.898C150.924 86.534 150.84 86.2167 150.672 85.946C150.504 85.666 150.28 85.4513 150 85.302C149.73 85.1433 149.431 85.064 149.104 85.064C148.787 85.064 148.488 85.1433 148.208 85.302C147.938 85.4513 147.718 85.666 147.55 85.946C147.392 86.2167 147.312 86.534 147.312 86.898V91H145.702ZM155.53 93.842V92.47H159.114C159.357 92.47 159.544 92.3953 159.674 92.246C159.814 92.0967 159.884 91.91 159.884 91.686V89.838H159.87C159.665 90.09 159.446 90.3093 159.212 90.496C158.979 90.6733 158.713 90.8133 158.414 90.916C158.125 91.0093 157.803 91.056 157.448 91.056C156.795 91.056 156.212 90.902 155.698 90.594C155.185 90.286 154.779 89.8567 154.48 89.306C154.191 88.746 154.046 88.1067 154.046 87.388C154.046 86.688 154.191 86.0627 154.48 85.512C154.779 84.952 155.204 84.5087 155.754 84.182C156.305 83.8553 156.977 83.692 157.77 83.692C158.526 83.692 159.18 83.8507 159.73 84.168C160.29 84.4853 160.724 84.9333 161.032 85.512C161.34 86.0813 161.494 86.7487 161.494 87.514V91.756C161.494 92.4 161.308 92.9087 160.934 93.282C160.561 93.6553 160.052 93.842 159.408 93.842H155.53ZM157.756 89.684C158.186 89.684 158.554 89.586 158.862 89.39C159.18 89.1847 159.422 88.914 159.59 88.578C159.768 88.2327 159.856 87.85 159.856 87.43C159.856 86.982 159.772 86.5807 159.604 86.226C159.436 85.8713 159.194 85.5913 158.876 85.386C158.568 85.1713 158.195 85.064 157.756 85.064C157.327 85.064 156.954 85.1713 156.636 85.386C156.328 85.5913 156.09 85.8713 155.922 86.226C155.754 86.5713 155.67 86.9633 155.67 87.402C155.67 87.822 155.754 88.2047 155.922 88.55C156.09 88.8953 156.328 89.1707 156.636 89.376C156.954 89.5813 157.327 89.684 157.756 89.684ZM171.537 91V88.844H168.541C168.196 88.844 167.883 88.7647 167.603 88.606C167.333 88.438 167.113 88.2233 166.945 87.962C166.787 87.6913 166.707 87.402 166.707 87.094C166.707 86.9167 166.731 86.7393 166.777 86.562C166.824 86.3847 166.885 86.2213 166.959 86.072L169.591 81.2H171.481L168.471 86.66C168.443 86.7253 168.42 86.7813 168.401 86.828C168.392 86.8747 168.387 86.9307 168.387 86.996C168.387 87.0987 168.415 87.1873 168.471 87.262C168.537 87.3273 168.63 87.36 168.751 87.36H171.537V83.944H173.203V87.36H174.505V88.844H173.203V91H171.537ZM175.745 91V89.53H178.825C179.161 89.53 179.455 89.4507 179.707 89.292C179.969 89.1333 180.169 88.9233 180.309 88.662C180.459 88.4007 180.533 88.1207 180.533 87.822C180.533 87.514 180.459 87.234 180.309 86.982C180.169 86.73 179.973 86.5293 179.721 86.38C179.469 86.2307 179.18 86.156 178.853 86.156H176.025V81.2H181.555V82.67H177.621V84.714H179.063C179.661 84.714 180.193 84.8587 180.659 85.148C181.135 85.428 181.509 85.806 181.779 86.282C182.059 86.758 182.199 87.276 182.199 87.836C182.199 88.4053 182.059 88.9327 181.779 89.418C181.499 89.894 181.121 90.2767 180.645 90.566C180.169 90.8553 179.633 91 179.035 91H175.745ZM185.919 86.45C185.49 86.45 185.093 86.3567 184.729 86.17C184.375 85.974 184.085 85.7127 183.861 85.386C183.647 85.0593 183.539 84.6907 183.539 84.28V83.188C183.539 82.7773 183.647 82.4087 183.861 82.082C184.085 81.7553 184.375 81.4987 184.729 81.312C185.093 81.1253 185.49 81.032 185.919 81.032C186.358 81.032 186.755 81.1253 187.109 81.312C187.473 81.4987 187.763 81.7553 187.977 82.082C188.192 82.4087 188.299 82.7773 188.299 83.188V84.28C188.299 84.6907 188.192 85.0593 187.977 85.386C187.763 85.7127 187.473 85.974 187.109 86.17C186.755 86.3567 186.358 86.45 185.919 86.45ZM185.933 85.302C186.129 85.302 186.311 85.2553 186.479 85.162C186.657 85.0593 186.797 84.924 186.899 84.756C187.011 84.5787 187.067 84.378 187.067 84.154V83.314C187.067 83.09 187.011 82.894 186.899 82.726C186.797 82.5487 186.657 82.4087 186.479 82.306C186.311 82.2033 186.129 82.152 185.933 82.152C185.728 82.152 185.537 82.2033 185.359 82.306C185.191 82.4087 185.051 82.5487 184.939 82.726C184.837 82.894 184.785 83.09 184.785 83.314V84.154C184.785 84.378 184.837 84.5787 184.939 84.756C185.051 84.924 185.191 85.0593 185.359 85.162C185.537 85.2553 185.728 85.302 185.933 85.302ZM192.569 91.168C192.14 91.168 191.743 91.0747 191.379 90.888C191.015 90.692 190.726 90.4307 190.511 90.104C190.297 89.7773 190.189 89.4133 190.189 89.012V87.92C190.189 87.5093 190.297 87.1407 190.511 86.814C190.726 86.478 191.015 86.2167 191.379 86.03C191.743 85.8433 192.14 85.75 192.569 85.75C192.999 85.75 193.391 85.8433 193.745 86.03C194.109 86.2167 194.399 86.478 194.613 86.814C194.837 87.1407 194.949 87.5093 194.949 87.92V89.012C194.949 89.4133 194.837 89.7773 194.613 90.104C194.399 90.4307 194.109 90.692 193.745 90.888C193.391 91.0747 192.999 91.168 192.569 91.168ZM192.583 90.02C192.779 90.02 192.961 89.9733 193.129 89.88C193.307 89.7773 193.447 89.642 193.549 89.474C193.661 89.306 193.717 89.1053 193.717 88.872V88.032C193.717 87.808 193.661 87.612 193.549 87.444C193.447 87.2667 193.307 87.1313 193.129 87.038C192.961 86.9353 192.779 86.884 192.583 86.884C192.378 86.884 192.187 86.9353 192.009 87.038C191.841 87.1313 191.701 87.2667 191.589 87.444C191.487 87.612 191.435 87.808 191.435 88.032V88.872C191.435 89.1053 191.487 89.306 191.589 89.474C191.701 89.642 191.841 89.7773 192.009 89.88C192.187 89.9733 192.378 90.02 192.583 90.02ZM185.261 91L191.925 81.2H193.199L186.535 91H185.261Z" fill="#8A8A8A"/>
<rect x="0.5" y="101.5" width="299" height="36" rx="4.5" stroke="#F2F2F2"/>
<rect x="4" y="105" width="14" height="29" rx="5" fill="#CB11FF"/>
<rect x="22" y="105" width="14" height="29" rx="5" fill="#CB11FF"/>
<rect x="40" y="105" width="14" height="29" rx="5" fill="#CB11FF"/>
<rect x="58" y="105" width="14" height="29" rx="5" fill="#CB11FF"/>
<rect x="76" y="105" width="14" height="29" rx="5" fill="#CB11FF"/>
<rect x="94" y="105" width="14" height="29" rx="5" fill="#CB11FF"/>
<defs>
<linearGradient id="paint0_linear_54_75" x1="29.5881" y1="10.228" x2="29.5881" y2="2.05346e-07" gradientUnits="userSpaceOnUse">
<stop offset="0.1875" stop-color="#CB11FF"/>
<stop offset="0.625" stop-color="#A00BE7"/>
</linearGradient>
<clipPath id="clip0_54_75">
<rect width="60" height="75" fill="white"/>
</clipPath>
</defs>
</svg>
