<svg width="300" height="123" viewBox="0 0 300 123" fill="none" xmlns="http://www.w3.org/2000/svg">
<g clip-path="url(#clip0_54_88)">
<path d="M0 0H60V60H0V0Z" fill="#7B05D9"/>
<path d="M30 56.4V4.80005H54V56.4H30Z" fill="#CB11FF"/>
<path d="M15.7764 50.1403L20.3678 47.3616C21.2537 48.9321 22.0595 50.261 23.9924 50.261C25.8451 50.261 27.0135 49.5364 27.0135 46.7173V27.5459H29.8327H32.6518V46.797C32.6518 52.6369 29.2286 55.2952 24.234 55.2952C19.7235 55.2952 17.1055 52.9596 15.7764 50.1403ZM35.7144 49.5361L40.3053 46.8781C41.514 48.8517 43.0848 50.3016 45.8636 50.3016C48.2 50.3016 49.6897 49.1335 49.6897 47.5224C49.6897 45.5892 48.1593 44.9044 45.5816 43.7771L44.1723 43.1724C40.1043 41.441 37.4059 39.266 37.4059 34.6746C37.4059 30.4456 40.6279 27.2234 45.6625 27.2234C49.247 27.2234 51.8246 28.4721 53.6771 31.7344L49.2868 34.5539C48.32 32.8221 47.2733 32.1375 45.6622 32.1375C44.0108 32.1375 42.9636 33.1847 42.9636 34.5539C42.9636 36.2454 44.0108 36.9305 46.4272 37.9777L47.8368 38.5817C52.6297 40.636 55.3281 42.7301 55.3281 47.442C55.3281 52.5171 51.3409 55.2959 45.9843 55.2959C40.7486 55.2959 37.3656 52.7986 35.7144 49.5361Z" fill="white"/>
<path d="M30 48V28H32V28.222V48H30Z" fill="#E6E6E6"/>
</g>
<path d="M111.64 76C111.089 76 110.604 75.8787 110.184 75.636C109.773 75.384 109.451 75.048 109.218 74.628C108.994 74.208 108.882 73.7413 108.882 73.228V66.2H110.562V73.438C110.562 73.7367 110.66 73.9933 110.856 74.208C111.061 74.4227 111.323 74.53 111.64 74.53H114.244V76H111.64ZM118.958 76.168C118.221 76.168 117.567 76.0047 116.998 75.678C116.429 75.342 115.976 74.894 115.64 74.334C115.313 73.7647 115.15 73.13 115.15 72.43C115.15 71.73 115.313 71.1 115.64 70.54C115.976 69.9707 116.429 69.5227 116.998 69.196C117.567 68.86 118.221 68.692 118.958 68.692C119.686 68.692 120.335 68.86 120.904 69.196C121.473 69.5227 121.921 69.966 122.248 70.526C122.584 71.086 122.752 71.7207 122.752 72.43C122.752 73.13 122.584 73.7647 122.248 74.334C121.921 74.894 121.473 75.342 120.904 75.678C120.335 76.0047 119.686 76.168 118.958 76.168ZM118.958 74.796C119.397 74.796 119.779 74.6933 120.106 74.488C120.433 74.2733 120.685 73.9887 120.862 73.634C121.039 73.2793 121.128 72.878 121.128 72.43C121.128 71.9913 121.039 71.5947 120.862 71.24C120.685 70.876 120.433 70.5913 120.106 70.386C119.779 70.1713 119.397 70.064 118.958 70.064C118.51 70.064 118.123 70.1713 117.796 70.386C117.479 70.5913 117.227 70.8713 117.04 71.226C116.863 71.5807 116.774 71.982 116.774 72.43C116.774 72.8687 116.863 73.27 117.04 73.634C117.227 73.9887 117.479 74.2733 117.796 74.488C118.123 74.6933 118.51 74.796 118.958 74.796ZM127.177 76.168C126.495 76.168 125.907 76 125.413 75.664C124.918 75.328 124.535 74.88 124.265 74.32C124.003 73.7507 123.873 73.1253 123.873 72.444C123.873 71.7347 124.022 71.1 124.321 70.54C124.629 69.9707 125.063 69.5227 125.623 69.196C126.192 68.86 126.869 68.692 127.653 68.692C128.427 68.692 129.085 68.86 129.627 69.196C130.177 69.5227 130.597 69.9707 130.887 70.54C131.185 71.1 131.335 71.7253 131.335 72.416V76H129.725V74.67H129.697C129.557 74.9313 129.375 75.1787 129.151 75.412C128.927 75.636 128.651 75.818 128.325 75.958C127.998 76.098 127.615 76.168 127.177 76.168ZM127.611 74.796C128.031 74.796 128.395 74.6933 128.703 74.488C129.02 74.2733 129.267 73.9887 129.445 73.634C129.622 73.27 129.706 72.864 129.697 72.416C129.697 71.968 129.613 71.5713 129.445 71.226C129.277 70.8713 129.039 70.5913 128.731 70.386C128.423 70.1713 128.054 70.064 127.625 70.064C127.177 70.064 126.794 70.1713 126.477 70.386C126.159 70.5913 125.917 70.8713 125.749 71.226C125.581 71.5807 125.497 71.982 125.497 72.43C125.497 72.8687 125.581 73.27 125.749 73.634C125.917 73.9887 126.155 74.2733 126.463 74.488C126.78 74.6933 127.163 74.796 127.611 74.796ZM136.579 76.168C136.01 76.168 135.492 76.0793 135.025 75.902C134.568 75.7153 134.176 75.4493 133.849 75.104C133.532 74.7587 133.284 74.3527 133.107 73.886C132.939 73.41 132.855 72.8873 132.855 72.318C132.855 71.59 133 70.9553 133.289 70.414C133.588 69.8727 133.998 69.4527 134.521 69.154C135.044 68.846 135.641 68.692 136.313 68.692C136.649 68.692 136.966 68.7433 137.265 68.846C137.564 68.9487 137.834 69.0933 138.077 69.28C138.32 69.4667 138.516 69.686 138.665 69.938H138.679V65.78H140.289V72.346C140.289 73.13 140.13 73.8113 139.813 74.39C139.505 74.9593 139.071 75.398 138.511 75.706C137.96 76.014 137.316 76.168 136.579 76.168ZM136.579 74.796C136.99 74.796 137.349 74.698 137.657 74.502C137.974 74.2967 138.222 74.0167 138.399 73.662C138.576 73.3073 138.665 72.8967 138.665 72.43C138.665 71.9633 138.576 71.5527 138.399 71.198C138.222 70.8433 137.974 70.568 137.657 70.372C137.349 70.1667 136.985 70.064 136.565 70.064C136.164 70.064 135.804 70.1667 135.487 70.372C135.17 70.5773 134.922 70.8573 134.745 71.212C134.568 71.5667 134.479 71.9727 134.479 72.43C134.479 72.8967 134.568 73.3073 134.745 73.662C134.922 74.0167 135.17 74.2967 135.487 74.502C135.814 74.698 136.178 74.796 136.579 74.796ZM142.161 76V68.86H143.771V76H142.161ZM142.959 67.866C142.679 67.866 142.437 67.7633 142.231 67.558C142.026 67.3527 141.923 67.11 141.923 66.83C141.923 66.55 142.026 66.3073 142.231 66.102C142.437 65.8967 142.679 65.794 142.959 65.794C143.249 65.794 143.491 65.8967 143.687 66.102C143.893 66.3073 143.995 66.55 143.995 66.83C143.995 67.11 143.893 67.3527 143.687 67.558C143.491 67.7633 143.249 67.866 142.959 67.866ZM145.702 76V71.884C145.702 71.268 145.842 70.722 146.122 70.246C146.402 69.7607 146.799 69.3827 147.312 69.112C147.826 68.832 148.428 68.692 149.118 68.692C149.809 68.692 150.406 68.832 150.91 69.112C151.424 69.3827 151.82 69.7607 152.1 70.246C152.38 70.722 152.52 71.268 152.52 71.884V76H150.924V71.898C150.924 71.534 150.84 71.2167 150.672 70.946C150.504 70.666 150.28 70.4513 150 70.302C149.73 70.1433 149.431 70.064 149.104 70.064C148.787 70.064 148.488 70.1433 148.208 70.302C147.938 70.4513 147.718 70.666 147.55 70.946C147.392 71.2167 147.312 71.534 147.312 71.898V76H145.702ZM155.53 78.842V77.47H159.114C159.357 77.47 159.544 77.3953 159.674 77.246C159.814 77.0967 159.884 76.91 159.884 76.686V74.838H159.87C159.665 75.09 159.446 75.3093 159.212 75.496C158.979 75.6733 158.713 75.8133 158.414 75.916C158.125 76.0093 157.803 76.056 157.448 76.056C156.795 76.056 156.212 75.902 155.698 75.594C155.185 75.286 154.779 74.8567 154.48 74.306C154.191 73.746 154.046 73.1067 154.046 72.388C154.046 71.688 154.191 71.0627 154.48 70.512C154.779 69.952 155.204 69.5087 155.754 69.182C156.305 68.8553 156.977 68.692 157.77 68.692C158.526 68.692 159.18 68.8507 159.73 69.168C160.29 69.4853 160.724 69.9333 161.032 70.512C161.34 71.0813 161.494 71.7487 161.494 72.514V76.756C161.494 77.4 161.308 77.9087 160.934 78.282C160.561 78.6553 160.052 78.842 159.408 78.842H155.53ZM157.756 74.684C158.186 74.684 158.554 74.586 158.862 74.39C159.18 74.1847 159.422 73.914 159.59 73.578C159.768 73.2327 159.856 72.85 159.856 72.43C159.856 71.982 159.772 71.5807 159.604 71.226C159.436 70.8713 159.194 70.5913 158.876 70.386C158.568 70.1713 158.195 70.064 157.756 70.064C157.327 70.064 156.954 70.1713 156.636 70.386C156.328 70.5913 156.09 70.8713 155.922 71.226C155.754 71.5713 155.67 71.9633 155.67 72.402C155.67 72.822 155.754 73.2047 155.922 73.55C156.09 73.8953 156.328 74.1707 156.636 74.376C156.954 74.5813 157.327 74.684 157.756 74.684ZM168.401 76C168.047 76 167.734 75.9253 167.463 75.776C167.202 75.6173 166.997 75.412 166.847 75.16C166.707 74.908 166.637 74.6233 166.637 74.306C166.637 74.0167 166.712 73.732 166.861 73.452C167.02 73.1627 167.225 72.9247 167.477 72.738L170.571 70.526C170.833 70.3393 171.029 70.1247 171.159 69.882C171.29 69.63 171.355 69.3733 171.355 69.112C171.355 68.8227 171.29 68.5753 171.159 68.37C171.029 68.1553 170.842 67.9873 170.599 67.866C170.357 67.7353 170.058 67.67 169.703 67.67H167.141V66.2H169.899C170.543 66.2 171.099 66.3307 171.565 66.592C172.032 66.8533 172.391 67.2033 172.643 67.642C172.895 68.0807 173.021 68.5707 173.021 69.112C173.021 69.6533 172.905 70.1387 172.671 70.568C172.447 70.9973 172.088 71.3847 171.593 71.73L168.485 73.858C168.439 73.8953 168.392 73.9467 168.345 74.012C168.308 74.068 168.289 74.1287 168.289 74.194C168.289 74.2967 168.322 74.3807 168.387 74.446C168.453 74.502 168.551 74.53 168.681 74.53H173.287V76H168.401ZM174.515 76V74.53H177.595C177.931 74.53 178.225 74.4507 178.477 74.292C178.738 74.1333 178.939 73.9233 179.079 73.662C179.228 73.4007 179.303 73.1207 179.303 72.822C179.303 72.514 179.228 72.234 179.079 71.982C178.939 71.73 178.743 71.5293 178.491 71.38C178.239 71.2307 177.949 71.156 177.623 71.156H174.795V66.2H180.325V67.67H176.391V69.714H177.833C178.43 69.714 178.962 69.8587 179.429 70.148C179.905 70.428 180.278 70.806 180.549 71.282C180.829 71.758 180.969 72.276 180.969 72.836C180.969 73.4053 180.829 73.9327 180.549 74.418C180.269 74.894 179.891 75.2767 179.415 75.566C178.939 75.8553 178.402 76 177.805 76H174.515ZM184.689 71.45C184.259 71.45 183.863 71.3567 183.499 71.17C183.144 70.974 182.855 70.7127 182.631 70.386C182.416 70.0593 182.309 69.6907 182.309 69.28V68.188C182.309 67.7773 182.416 67.4087 182.631 67.082C182.855 66.7553 183.144 66.4987 183.499 66.312C183.863 66.1253 184.259 66.032 184.689 66.032C185.127 66.032 185.524 66.1253 185.879 66.312C186.243 66.4987 186.532 66.7553 186.747 67.082C186.961 67.4087 187.069 67.7773 187.069 68.188V69.28C187.069 69.6907 186.961 70.0593 186.747 70.386C186.532 70.7127 186.243 70.974 185.879 71.17C185.524 71.3567 185.127 71.45 184.689 71.45ZM184.703 70.302C184.899 70.302 185.081 70.2553 185.249 70.162C185.426 70.0593 185.566 69.924 185.669 69.756C185.781 69.5787 185.837 69.378 185.837 69.154V68.314C185.837 68.09 185.781 67.894 185.669 67.726C185.566 67.5487 185.426 67.4087 185.249 67.306C185.081 67.2033 184.899 67.152 184.703 67.152C184.497 67.152 184.306 67.2033 184.129 67.306C183.961 67.4087 183.821 67.5487 183.709 67.726C183.606 67.894 183.555 68.09 183.555 68.314V69.154C183.555 69.378 183.606 69.5787 183.709 69.756C183.821 69.924 183.961 70.0593 184.129 70.162C184.306 70.2553 184.497 70.302 184.703 70.302ZM191.339 76.168C190.909 76.168 190.513 76.0747 190.149 75.888C189.785 75.692 189.495 75.4307 189.281 75.104C189.066 74.7773 188.959 74.4133 188.959 74.012V72.92C188.959 72.5093 189.066 72.1407 189.281 71.814C189.495 71.478 189.785 71.2167 190.149 71.03C190.513 70.8433 190.909 70.75 191.339 70.75C191.768 70.75 192.16 70.8433 192.515 71.03C192.879 71.2167 193.168 71.478 193.383 71.814C193.607 72.1407 193.719 72.5093 193.719 72.92V74.012C193.719 74.4133 193.607 74.7773 193.383 75.104C193.168 75.4307 192.879 75.692 192.515 75.888C192.16 76.0747 191.768 76.168 191.339 76.168ZM191.353 75.02C191.549 75.02 191.731 74.9733 191.899 74.88C192.076 74.7773 192.216 74.642 192.319 74.474C192.431 74.306 192.487 74.1053 192.487 73.872V73.032C192.487 72.808 192.431 72.612 192.319 72.444C192.216 72.2667 192.076 72.1313 191.899 72.038C191.731 71.9353 191.549 71.884 191.353 71.884C191.147 71.884 190.956 71.9353 190.779 72.038C190.611 72.1313 190.471 72.2667 190.359 72.444C190.256 72.612 190.205 72.808 190.205 73.032V73.872C190.205 74.1053 190.256 74.306 190.359 74.474C190.471 74.642 190.611 74.7773 190.779 74.88C190.956 74.9733 191.147 75.02 191.353 75.02ZM184.031 76L190.695 66.2H191.969L185.305 76H184.031Z" fill="#8A8A8A"/>
<rect x="0.5" y="86.5" width="299" height="36" rx="4.5" stroke="#F2F2F2"/>
<rect x="4" y="90" width="14" height="29" rx="5" fill="#CB11FF"/>
<rect x="22" y="90" width="14" height="29" rx="5" fill="#CB11FF"/>
<rect x="40" y="90" width="14" height="29" rx="5" fill="#CB11FF"/>
<rect x="58" y="90" width="14" height="29" rx="5" fill="#CB11FF"/>
<defs>
<clipPath id="clip0_54_88">
<rect width="60" height="60" fill="white"/>
</clipPath>
</defs>
</svg>
