<svg width="300" height="138" viewBox="0 0 300 138" fill="none" xmlns="http://www.w3.org/2000/svg">
<g clip-path="url(#clip0_54_76)">
<path d="M59.886 14.7021L54.4406 68.7936L29.9636 74.8106L5.55395 68.8019L0.114258 14.7021H59.886Z" fill="#7B05D9"/>
<path d="M30.0002 70.2113L49.779 65.3492L54.4321 19.1255H30.0002V70.2113Z" fill="#CB11FF"/>
<path d="M19.5776 32.6351H30.1632V26H11.3999L11.5789 27.7801L13.4181 46.0647H30.1632V39.4296H20.2615L19.5776 32.6351V32.6351ZM21.2641 49.3823H13.7525L14.8007 59.8005L30.1287 63.5733L30.1632 63.565V56.6617L30.1304 56.6694L21.7969 54.6741L21.2641 49.3823Z" fill="#E6E6E6"/>
<path d="M5.67554 0H9.47819V3.33137H12.9568V0H16.7597V10.0882H12.957V6.71011H9.47842V10.0882H5.67577V0H5.67554ZM21.7601 3.3455H18.4129V0H28.9127V3.3455H25.5634V10.0882H21.7608V3.3455H21.7605H21.7601ZM30.579 0H34.5441L36.9831 3.54474L39.4198 0H43.3865V10.0882H39.5993V5.08795L36.9831 8.67486H36.9175L34.2997 5.08795V10.0882H30.579V0ZM45.2789 0H49.0827V6.75374H54.4303V10.0882H45.2786V0H45.2789Z" fill="url(#paint0_linear_54_76)"/>
<path d="M29.9741 46.0647H39.1959L38.3265 54.6699L29.9739 56.6673V63.5702L45.3267 59.8005L45.4393 58.6794L47.1994 41.2113L47.382 39.4296H29.9741V46.0647ZM29.9741 32.6189V32.6351H48.0635L48.2135 31.1438L48.555 27.7801L48.7339 26H29.9741V32.6191V32.6189Z" fill="white"/>
</g>
<path d="M111.64 91C111.089 91 110.604 90.8787 110.184 90.636C109.773 90.384 109.451 90.048 109.218 89.628C108.994 89.208 108.882 88.7413 108.882 88.228V81.2H110.562V88.438C110.562 88.7367 110.66 88.9933 110.856 89.208C111.061 89.4227 111.323 89.53 111.64 89.53H114.244V91H111.64ZM118.958 91.168C118.221 91.168 117.567 91.0047 116.998 90.678C116.429 90.342 115.976 89.894 115.64 89.334C115.313 88.7647 115.15 88.13 115.15 87.43C115.15 86.73 115.313 86.1 115.64 85.54C115.976 84.9707 116.429 84.5227 116.998 84.196C117.567 83.86 118.221 83.692 118.958 83.692C119.686 83.692 120.335 83.86 120.904 84.196C121.473 84.5227 121.921 84.966 122.248 85.526C122.584 86.086 122.752 86.7207 122.752 87.43C122.752 88.13 122.584 88.7647 122.248 89.334C121.921 89.894 121.473 90.342 120.904 90.678C120.335 91.0047 119.686 91.168 118.958 91.168ZM118.958 89.796C119.397 89.796 119.779 89.6933 120.106 89.488C120.433 89.2733 120.685 88.9887 120.862 88.634C121.039 88.2793 121.128 87.878 121.128 87.43C121.128 86.9913 121.039 86.5947 120.862 86.24C120.685 85.876 120.433 85.5913 120.106 85.386C119.779 85.1713 119.397 85.064 118.958 85.064C118.51 85.064 118.123 85.1713 117.796 85.386C117.479 85.5913 117.227 85.8713 117.04 86.226C116.863 86.5807 116.774 86.982 116.774 87.43C116.774 87.8687 116.863 88.27 117.04 88.634C117.227 88.9887 117.479 89.2733 117.796 89.488C118.123 89.6933 118.51 89.796 118.958 89.796ZM127.177 91.168C126.495 91.168 125.907 91 125.413 90.664C124.918 90.328 124.535 89.88 124.265 89.32C124.003 88.7507 123.873 88.1253 123.873 87.444C123.873 86.7347 124.022 86.1 124.321 85.54C124.629 84.9707 125.063 84.5227 125.623 84.196C126.192 83.86 126.869 83.692 127.653 83.692C128.427 83.692 129.085 83.86 129.627 84.196C130.177 84.5227 130.597 84.9707 130.887 85.54C131.185 86.1 131.335 86.7253 131.335 87.416V91H129.725V89.67H129.697C129.557 89.9313 129.375 90.1787 129.151 90.412C128.927 90.636 128.651 90.818 128.325 90.958C127.998 91.098 127.615 91.168 127.177 91.168ZM127.611 89.796C128.031 89.796 128.395 89.6933 128.703 89.488C129.02 89.2733 129.267 88.9887 129.445 88.634C129.622 88.27 129.706 87.864 129.697 87.416C129.697 86.968 129.613 86.5713 129.445 86.226C129.277 85.8713 129.039 85.5913 128.731 85.386C128.423 85.1713 128.054 85.064 127.625 85.064C127.177 85.064 126.794 85.1713 126.477 85.386C126.159 85.5913 125.917 85.8713 125.749 86.226C125.581 86.5807 125.497 86.982 125.497 87.43C125.497 87.8687 125.581 88.27 125.749 88.634C125.917 88.9887 126.155 89.2733 126.463 89.488C126.78 89.6933 127.163 89.796 127.611 89.796ZM136.579 91.168C136.01 91.168 135.492 91.0793 135.025 90.902C134.568 90.7153 134.176 90.4493 133.849 90.104C133.532 89.7587 133.284 89.3527 133.107 88.886C132.939 88.41 132.855 87.8873 132.855 87.318C132.855 86.59 133 85.9553 133.289 85.414C133.588 84.8727 133.998 84.4527 134.521 84.154C135.044 83.846 135.641 83.692 136.313 83.692C136.649 83.692 136.966 83.7433 137.265 83.846C137.564 83.9487 137.834 84.0933 138.077 84.28C138.32 84.4667 138.516 84.686 138.665 84.938H138.679V80.78H140.289V87.346C140.289 88.13 140.13 88.8113 139.813 89.39C139.505 89.9593 139.071 90.398 138.511 90.706C137.96 91.014 137.316 91.168 136.579 91.168ZM136.579 89.796C136.99 89.796 137.349 89.698 137.657 89.502C137.974 89.2967 138.222 89.0167 138.399 88.662C138.576 88.3073 138.665 87.8967 138.665 87.43C138.665 86.9633 138.576 86.5527 138.399 86.198C138.222 85.8433 137.974 85.568 137.657 85.372C137.349 85.1667 136.985 85.064 136.565 85.064C136.164 85.064 135.804 85.1667 135.487 85.372C135.17 85.5773 134.922 85.8573 134.745 86.212C134.568 86.5667 134.479 86.9727 134.479 87.43C134.479 87.8967 134.568 88.3073 134.745 88.662C134.922 89.0167 135.17 89.2967 135.487 89.502C135.814 89.698 136.178 89.796 136.579 89.796ZM142.161 91V83.86H143.771V91H142.161ZM142.959 82.866C142.679 82.866 142.437 82.7633 142.231 82.558C142.026 82.3527 141.923 82.11 141.923 81.83C141.923 81.55 142.026 81.3073 142.231 81.102C142.437 80.8967 142.679 80.794 142.959 80.794C143.249 80.794 143.491 80.8967 143.687 81.102C143.893 81.3073 143.995 81.55 143.995 81.83C143.995 82.11 143.893 82.3527 143.687 82.558C143.491 82.7633 143.249 82.866 142.959 82.866ZM145.702 91V86.884C145.702 86.268 145.842 85.722 146.122 85.246C146.402 84.7607 146.799 84.3827 147.312 84.112C147.826 83.832 148.428 83.692 149.118 83.692C149.809 83.692 150.406 83.832 150.91 84.112C151.424 84.3827 151.82 84.7607 152.1 85.246C152.38 85.722 152.52 86.268 152.52 86.884V91H150.924V86.898C150.924 86.534 150.84 86.2167 150.672 85.946C150.504 85.666 150.28 85.4513 150 85.302C149.73 85.1433 149.431 85.064 149.104 85.064C148.787 85.064 148.488 85.1433 148.208 85.302C147.938 85.4513 147.718 85.666 147.55 85.946C147.392 86.2167 147.312 86.534 147.312 86.898V91H145.702ZM155.53 93.842V92.47H159.114C159.357 92.47 159.544 92.3953 159.674 92.246C159.814 92.0967 159.884 91.91 159.884 91.686V89.838H159.87C159.665 90.09 159.446 90.3093 159.212 90.496C158.979 90.6733 158.713 90.8133 158.414 90.916C158.125 91.0093 157.803 91.056 157.448 91.056C156.795 91.056 156.212 90.902 155.698 90.594C155.185 90.286 154.779 89.8567 154.48 89.306C154.191 88.746 154.046 88.1067 154.046 87.388C154.046 86.688 154.191 86.0627 154.48 85.512C154.779 84.952 155.204 84.5087 155.754 84.182C156.305 83.8553 156.977 83.692 157.77 83.692C158.526 83.692 159.18 83.8507 159.73 84.168C160.29 84.4853 160.724 84.9333 161.032 85.512C161.34 86.0813 161.494 86.7487 161.494 87.514V91.756C161.494 92.4 161.308 92.9087 160.934 93.282C160.561 93.6553 160.052 93.842 159.408 93.842H155.53ZM157.756 89.684C158.186 89.684 158.554 89.586 158.862 89.39C159.18 89.1847 159.422 88.914 159.59 88.578C159.768 88.2327 159.856 87.85 159.856 87.43C159.856 86.982 159.772 86.5807 159.604 86.226C159.436 85.8713 159.194 85.5913 158.876 85.386C158.568 85.1713 158.195 85.064 157.756 85.064C157.327 85.064 156.954 85.1713 156.636 85.386C156.328 85.5913 156.09 85.8713 155.922 86.226C155.754 86.5713 155.67 86.9633 155.67 87.402C155.67 87.822 155.754 88.2047 155.922 88.55C156.09 88.8953 156.328 89.1707 156.636 89.376C156.954 89.5813 157.327 89.684 157.756 89.684ZM166.735 91V89.53H169.815C170.151 89.53 170.445 89.4507 170.697 89.292C170.959 89.1333 171.159 88.9233 171.299 88.662C171.449 88.4007 171.523 88.1207 171.523 87.822C171.523 87.514 171.449 87.234 171.299 86.982C171.159 86.73 170.963 86.5293 170.711 86.38C170.459 86.2307 170.17 86.156 169.843 86.156H167.015V81.2H172.545V82.67H168.611V84.714H170.053C170.651 84.714 171.183 84.8587 171.649 85.148C172.125 85.428 172.499 85.806 172.769 86.282C173.049 86.758 173.189 87.276 173.189 87.836C173.189 88.4053 173.049 88.9327 172.769 89.418C172.489 89.894 172.111 90.2767 171.635 90.566C171.159 90.8553 170.623 91 170.025 91H166.735ZM178.407 91.168C177.717 91.168 177.096 91.0187 176.545 90.72C175.995 90.4213 175.561 90.0107 175.243 89.488C174.926 88.9653 174.767 88.382 174.767 87.738V84.462C174.767 83.818 174.926 83.2393 175.243 82.726C175.561 82.2033 175.995 81.7927 176.545 81.494C177.096 81.186 177.717 81.032 178.407 81.032C179.089 81.032 179.7 81.186 180.241 81.494C180.792 81.7927 181.226 82.2033 181.543 82.726C181.861 83.2393 182.019 83.818 182.019 84.462V87.738C182.019 88.382 181.861 88.9653 181.543 89.488C181.226 90.0013 180.792 90.412 180.241 90.72C179.7 91.0187 179.089 91.168 178.407 91.168ZM178.407 89.698C178.762 89.698 179.084 89.6187 179.373 89.46C179.672 89.292 179.905 89.068 180.073 88.788C180.251 88.508 180.339 88.2 180.339 87.864V84.336C180.339 83.9907 180.251 83.6827 180.073 83.412C179.896 83.1413 179.663 82.922 179.373 82.754C179.084 82.586 178.762 82.502 178.407 82.502C178.053 82.502 177.721 82.586 177.413 82.754C177.115 82.9127 176.877 83.132 176.699 83.412C176.522 83.692 176.433 84 176.433 84.336V87.864C176.433 88.2 176.522 88.508 176.699 88.788C176.877 89.068 177.115 89.292 177.413 89.46C177.712 89.6187 178.043 89.698 178.407 89.698ZM185.988 86.45C185.558 86.45 185.162 86.3567 184.798 86.17C184.443 85.974 184.154 85.7127 183.93 85.386C183.715 85.0593 183.608 84.6907 183.608 84.28V83.188C183.608 82.7773 183.715 82.4087 183.93 82.082C184.154 81.7553 184.443 81.4987 184.798 81.312C185.162 81.1253 185.558 81.032 185.988 81.032C186.426 81.032 186.823 81.1253 187.178 81.312C187.542 81.4987 187.831 81.7553 188.046 82.082C188.26 82.4087 188.368 82.7773 188.368 83.188V84.28C188.368 84.6907 188.26 85.0593 188.046 85.386C187.831 85.7127 187.542 85.974 187.178 86.17C186.823 86.3567 186.426 86.45 185.988 86.45ZM186.002 85.302C186.198 85.302 186.38 85.2553 186.548 85.162C186.725 85.0593 186.865 84.924 186.968 84.756C187.08 84.5787 187.136 84.378 187.136 84.154V83.314C187.136 83.09 187.08 82.894 186.968 82.726C186.865 82.5487 186.725 82.4087 186.548 82.306C186.38 82.2033 186.198 82.152 186.002 82.152C185.796 82.152 185.605 82.2033 185.428 82.306C185.26 82.4087 185.12 82.5487 185.008 82.726C184.905 82.894 184.854 83.09 184.854 83.314V84.154C184.854 84.378 184.905 84.5787 185.008 84.756C185.12 84.924 185.26 85.0593 185.428 85.162C185.605 85.2553 185.796 85.302 186.002 85.302ZM192.638 91.168C192.208 91.168 191.812 91.0747 191.448 90.888C191.084 90.692 190.794 90.4307 190.58 90.104C190.365 89.7773 190.258 89.4133 190.258 89.012V87.92C190.258 87.5093 190.365 87.1407 190.58 86.814C190.794 86.478 191.084 86.2167 191.448 86.03C191.812 85.8433 192.208 85.75 192.638 85.75C193.067 85.75 193.459 85.8433 193.814 86.03C194.178 86.2167 194.467 86.478 194.682 86.814C194.906 87.1407 195.018 87.5093 195.018 87.92V89.012C195.018 89.4133 194.906 89.7773 194.682 90.104C194.467 90.4307 194.178 90.692 193.814 90.888C193.459 91.0747 193.067 91.168 192.638 91.168ZM192.652 90.02C192.848 90.02 193.03 89.9733 193.198 89.88C193.375 89.7773 193.515 89.642 193.618 89.474C193.73 89.306 193.786 89.1053 193.786 88.872V88.032C193.786 87.808 193.73 87.612 193.618 87.444C193.515 87.2667 193.375 87.1313 193.198 87.038C193.03 86.9353 192.848 86.884 192.652 86.884C192.446 86.884 192.255 86.9353 192.078 87.038C191.91 87.1313 191.77 87.2667 191.658 87.444C191.555 87.612 191.504 87.808 191.504 88.032V88.872C191.504 89.1053 191.555 89.306 191.658 89.474C191.77 89.642 191.91 89.7773 192.078 89.88C192.255 89.9733 192.446 90.02 192.652 90.02ZM185.33 91L191.994 81.2H193.268L186.604 91H185.33Z" fill="#8A8A8A"/>
<rect x="0.5" y="101.5" width="299" height="36" rx="4.5" stroke="#F2F2F2"/>
<rect x="4" y="105" width="14" height="29" rx="5" fill="#CB11FF"/>
<rect x="22" y="105" width="14" height="29" rx="5" fill="#CB11FF"/>
<rect x="40" y="105" width="14" height="29" rx="5" fill="#CB11FF"/>
<rect x="58" y="105" width="14" height="29" rx="5" fill="#CB11FF"/>
<rect x="76" y="105" width="14" height="29" rx="5" fill="#CB11FF"/>
<rect x="94" y="105" width="14" height="29" rx="5" fill="#CB11FF"/>
<rect x="112" y="105" width="14" height="29" rx="5" fill="#CB11FF"/>
<rect x="130" y="105" width="14" height="29" rx="5" fill="#CB11FF"/>
<defs>
<linearGradient id="paint0_linear_54_76" x1="30.0529" y1="10.0882" x2="30.0529" y2="2.02539e-07" gradientUnits="userSpaceOnUse">
<stop offset="0.1875" stop-color="#CB11FF"/>
<stop offset="0.625" stop-color="#A00BE7"/>
</linearGradient>
<clipPath id="clip0_54_76">
<rect width="60" height="75" fill="white"/>
</clipPath>
</defs>
</svg>
