<svg width="300" height="113" viewBox="0 0 300 113" fill="none" xmlns="http://www.w3.org/2000/svg">
<g clip-path="url(#clip0_54_136)">
<path d="M25.0001 0C11.1955 0 0.00146484 11.4761 0.00146484 25.633C0.00146484 36.9583 7.16431 46.5667 17.0971 49.9561C18.3464 50.1934 18.8052 49.4 18.8052 48.7229C18.8052 48.1117 18.7818 46.0925 18.7712 43.9508C11.8166 45.5012 10.3491 40.9263 10.3491 40.9263C9.21184 37.9635 7.57327 37.1755 7.57327 37.1755C5.30524 35.5847 7.74435 35.6175 7.74435 35.6175C10.2545 35.7982 11.5763 38.2589 11.5763 38.2589C13.8061 42.1775 17.4246 41.0447 18.8511 40.3896C19.0755 38.7331 19.7233 37.6021 20.4383 36.9621C14.8857 36.314 9.04876 34.116 9.04876 24.2943C9.04876 21.4957 10.0253 19.209 11.6244 17.4139C11.3648 16.7682 10.5092 14.1613 11.8666 10.6304C11.8666 10.6304 13.9658 9.94151 18.7431 13.258C20.7371 12.69 22.8757 12.4053 25.0001 12.3955C27.1246 12.4053 29.2649 12.6898 31.2626 13.258C36.034 9.94171 38.1304 10.6306 38.1304 10.6306C39.491 14.1611 38.635 16.7684 38.3755 17.4139C39.9783 19.209 40.9482 21.4957 40.9482 24.2943C40.9482 34.1395 35.1001 36.3072 29.5335 36.9418C30.4301 37.7373 31.2291 39.2973 31.2291 41.6887C31.2291 45.1183 31.2001 47.8786 31.2001 48.7229C31.2001 49.4052 31.6501 50.2044 32.9172 49.9525C42.8446 46.5595 49.9984 36.9547 49.9984 25.6332C49.9984 11.4761 38.8059 0 25.0001 0ZM9.36437 36.5147C9.3093 36.6421 9.1138 36.6803 8.93588 36.5928C8.75445 36.5093 8.65269 36.3357 8.71128 36.2079C8.76519 36.0767 8.96107 36.0401 9.14192 36.128C9.32355 36.2117 9.42706 36.3869 9.36437 36.5147ZM10.594 37.6397C10.4748 37.7531 10.2417 37.7004 10.0835 37.5214C9.92 37.3428 9.88934 37.1036 10.0102 36.9887C10.1333 36.8754 10.3592 36.9284 10.5231 37.1071C10.6868 37.2879 10.7184 37.5252 10.594 37.6397ZM11.4377 39.0792C11.2844 39.1883 11.034 39.086 10.8791 38.8581C10.726 38.6302 10.726 38.3568 10.8824 38.2473C11.0377 38.1378 11.2844 38.2363 11.4412 38.4626C11.5939 38.6943 11.5939 38.9676 11.4375 39.0794L11.4377 39.0792ZM12.8642 40.7463C12.7273 40.9013 12.4353 40.8596 12.2216 40.6482C12.0031 40.4415 11.9423 40.1483 12.0798 39.9933C12.2185 39.8379 12.512 39.8816 12.7273 40.0915C12.944 40.2977 13.0104 40.5931 12.8642 40.7463ZM14.7082 41.309C14.6476 41.5099 14.3664 41.6012 14.0834 41.5159C13.8006 41.428 13.6157 41.1929 13.6727 40.99C13.7315 40.7878 14.0139 40.6928 14.299 40.7842C14.5814 40.8715 14.767 41.105 14.7082 41.3092V41.309ZM16.8065 41.5479C16.8135 41.7592 16.5735 41.9344 16.2763 41.9384C15.9774 41.9452 15.7355 41.7742 15.7321 41.566C15.7321 41.3527 15.9669 41.1791 16.2659 41.1739C16.5631 41.1678 16.8065 41.3377 16.8065 41.5479ZM18.8679 41.4668C18.9034 41.6731 18.697 41.885 18.4017 41.9414C18.1117 41.9957 17.843 41.8683 17.806 41.6639C17.7701 41.4524 17.9804 41.2405 18.2701 41.1859C18.5658 41.1332 18.8302 41.2572 18.8679 41.4668Z" fill="url(#paint0_linear_54_136)"/>
</g>
<path d="M105.64 66C105.089 66 104.604 65.8787 104.184 65.636C103.773 65.384 103.451 65.048 103.218 64.628C102.994 64.208 102.882 63.7413 102.882 63.228V56.2H104.562V63.438C104.562 63.7367 104.66 63.9933 104.856 64.208C105.061 64.4227 105.323 64.53 105.64 64.53H108.244V66H105.64ZM112.958 66.168C112.221 66.168 111.567 66.0047 110.998 65.678C110.429 65.342 109.976 64.894 109.64 64.334C109.313 63.7647 109.15 63.13 109.15 62.43C109.15 61.73 109.313 61.1 109.64 60.54C109.976 59.9707 110.429 59.5227 110.998 59.196C111.567 58.86 112.221 58.692 112.958 58.692C113.686 58.692 114.335 58.86 114.904 59.196C115.473 59.5227 115.921 59.966 116.248 60.526C116.584 61.086 116.752 61.7207 116.752 62.43C116.752 63.13 116.584 63.7647 116.248 64.334C115.921 64.894 115.473 65.342 114.904 65.678C114.335 66.0047 113.686 66.168 112.958 66.168ZM112.958 64.796C113.397 64.796 113.779 64.6933 114.106 64.488C114.433 64.2733 114.685 63.9887 114.862 63.634C115.039 63.2793 115.128 62.878 115.128 62.43C115.128 61.9913 115.039 61.5947 114.862 61.24C114.685 60.876 114.433 60.5913 114.106 60.386C113.779 60.1713 113.397 60.064 112.958 60.064C112.51 60.064 112.123 60.1713 111.796 60.386C111.479 60.5913 111.227 60.8713 111.04 61.226C110.863 61.5807 110.774 61.982 110.774 62.43C110.774 62.8687 110.863 63.27 111.04 63.634C111.227 63.9887 111.479 64.2733 111.796 64.488C112.123 64.6933 112.51 64.796 112.958 64.796ZM121.177 66.168C120.495 66.168 119.907 66 119.413 65.664C118.918 65.328 118.535 64.88 118.265 64.32C118.003 63.7507 117.873 63.1253 117.873 62.444C117.873 61.7347 118.022 61.1 118.321 60.54C118.629 59.9707 119.063 59.5227 119.623 59.196C120.192 58.86 120.869 58.692 121.653 58.692C122.427 58.692 123.085 58.86 123.627 59.196C124.177 59.5227 124.597 59.9707 124.887 60.54C125.185 61.1 125.335 61.7253 125.335 62.416V66H123.725V64.67H123.697C123.557 64.9313 123.375 65.1787 123.151 65.412C122.927 65.636 122.651 65.818 122.325 65.958C121.998 66.098 121.615 66.168 121.177 66.168ZM121.611 64.796C122.031 64.796 122.395 64.6933 122.703 64.488C123.02 64.2733 123.267 63.9887 123.445 63.634C123.622 63.27 123.706 62.864 123.697 62.416C123.697 61.968 123.613 61.5713 123.445 61.226C123.277 60.8713 123.039 60.5913 122.731 60.386C122.423 60.1713 122.054 60.064 121.625 60.064C121.177 60.064 120.794 60.1713 120.477 60.386C120.159 60.5913 119.917 60.8713 119.749 61.226C119.581 61.5807 119.497 61.982 119.497 62.43C119.497 62.8687 119.581 63.27 119.749 63.634C119.917 63.9887 120.155 64.2733 120.463 64.488C120.78 64.6933 121.163 64.796 121.611 64.796ZM130.579 66.168C130.01 66.168 129.492 66.0793 129.025 65.902C128.568 65.7153 128.176 65.4493 127.849 65.104C127.532 64.7587 127.284 64.3527 127.107 63.886C126.939 63.41 126.855 62.8873 126.855 62.318C126.855 61.59 127 60.9553 127.289 60.414C127.588 59.8727 127.998 59.4527 128.521 59.154C129.044 58.846 129.641 58.692 130.313 58.692C130.649 58.692 130.966 58.7433 131.265 58.846C131.564 58.9487 131.834 59.0933 132.077 59.28C132.32 59.4667 132.516 59.686 132.665 59.938H132.679V55.78H134.289V62.346C134.289 63.13 134.13 63.8113 133.813 64.39C133.505 64.9593 133.071 65.398 132.511 65.706C131.96 66.014 131.316 66.168 130.579 66.168ZM130.579 64.796C130.99 64.796 131.349 64.698 131.657 64.502C131.974 64.2967 132.222 64.0167 132.399 63.662C132.576 63.3073 132.665 62.8967 132.665 62.43C132.665 61.9633 132.576 61.5527 132.399 61.198C132.222 60.8433 131.974 60.568 131.657 60.372C131.349 60.1667 130.985 60.064 130.565 60.064C130.164 60.064 129.804 60.1667 129.487 60.372C129.17 60.5773 128.922 60.8573 128.745 61.212C128.568 61.5667 128.479 61.9727 128.479 62.43C128.479 62.8967 128.568 63.3073 128.745 63.662C128.922 64.0167 129.17 64.2967 129.487 64.502C129.814 64.698 130.178 64.796 130.579 64.796ZM136.161 66V58.86H137.771V66H136.161ZM136.959 57.866C136.679 57.866 136.437 57.7633 136.231 57.558C136.026 57.3527 135.923 57.11 135.923 56.83C135.923 56.55 136.026 56.3073 136.231 56.102C136.437 55.8967 136.679 55.794 136.959 55.794C137.249 55.794 137.491 55.8967 137.687 56.102C137.893 56.3073 137.995 56.55 137.995 56.83C137.995 57.11 137.893 57.3527 137.687 57.558C137.491 57.7633 137.249 57.866 136.959 57.866ZM139.702 66V61.884C139.702 61.268 139.842 60.722 140.122 60.246C140.402 59.7607 140.799 59.3827 141.312 59.112C141.826 58.832 142.428 58.692 143.118 58.692C143.809 58.692 144.406 58.832 144.91 59.112C145.424 59.3827 145.82 59.7607 146.1 60.246C146.38 60.722 146.52 61.268 146.52 61.884V66H144.924V61.898C144.924 61.534 144.84 61.2167 144.672 60.946C144.504 60.666 144.28 60.4513 144 60.302C143.73 60.1433 143.431 60.064 143.104 60.064C142.787 60.064 142.488 60.1433 142.208 60.302C141.938 60.4513 141.718 60.666 141.55 60.946C141.392 61.2167 141.312 61.534 141.312 61.898V66H139.702ZM149.53 68.842V67.47H153.114C153.357 67.47 153.544 67.3953 153.674 67.246C153.814 67.0967 153.884 66.91 153.884 66.686V64.838H153.87C153.665 65.09 153.446 65.3093 153.212 65.496C152.979 65.6733 152.713 65.8133 152.414 65.916C152.125 66.0093 151.803 66.056 151.448 66.056C150.795 66.056 150.212 65.902 149.698 65.594C149.185 65.286 148.779 64.8567 148.48 64.306C148.191 63.746 148.046 63.1067 148.046 62.388C148.046 61.688 148.191 61.0627 148.48 60.512C148.779 59.952 149.204 59.5087 149.754 59.182C150.305 58.8553 150.977 58.692 151.77 58.692C152.526 58.692 153.18 58.8507 153.73 59.168C154.29 59.4853 154.724 59.9333 155.032 60.512C155.34 61.0813 155.494 61.7487 155.494 62.514V66.756C155.494 67.4 155.308 67.9087 154.934 68.282C154.561 68.6553 154.052 68.842 153.408 68.842H149.53ZM151.756 64.684C152.186 64.684 152.554 64.586 152.862 64.39C153.18 64.1847 153.422 63.914 153.59 63.578C153.768 63.2327 153.856 62.85 153.856 62.43C153.856 61.982 153.772 61.5807 153.604 61.226C153.436 60.8713 153.194 60.5913 152.876 60.386C152.568 60.1713 152.195 60.064 151.756 60.064C151.327 60.064 150.954 60.1713 150.636 60.386C150.328 60.5913 150.09 60.8713 149.922 61.226C149.754 61.5713 149.67 61.9633 149.67 62.402C149.67 62.822 149.754 63.2047 149.922 63.55C150.09 63.8953 150.328 64.1707 150.636 64.376C150.954 64.5813 151.327 64.684 151.756 64.684ZM165.537 66V63.844H162.541C162.196 63.844 161.883 63.7647 161.603 63.606C161.333 63.438 161.113 63.2233 160.945 62.962C160.787 62.6913 160.707 62.402 160.707 62.094C160.707 61.9167 160.731 61.7393 160.777 61.562C160.824 61.3847 160.885 61.2213 160.959 61.072L163.591 56.2H165.481L162.471 61.66C162.443 61.7253 162.42 61.7813 162.401 61.828C162.392 61.8747 162.387 61.9307 162.387 61.996C162.387 62.0987 162.415 62.1873 162.471 62.262C162.537 62.3273 162.63 62.36 162.751 62.36H165.537V58.944H167.203V62.36H168.505V63.844H167.203V66H165.537ZM169.745 66V64.53H172.825C173.161 64.53 173.455 64.4507 173.707 64.292C173.969 64.1333 174.169 63.9233 174.309 63.662C174.459 63.4007 174.533 63.1207 174.533 62.822C174.533 62.514 174.459 62.234 174.309 61.982C174.169 61.73 173.973 61.5293 173.721 61.38C173.469 61.2307 173.18 61.156 172.853 61.156H170.025V56.2H175.555V57.67H171.621V59.714H173.063C173.661 59.714 174.193 59.8587 174.659 60.148C175.135 60.428 175.509 60.806 175.779 61.282C176.059 61.758 176.199 62.276 176.199 62.836C176.199 63.4053 176.059 63.9327 175.779 64.418C175.499 64.894 175.121 65.2767 174.645 65.566C174.169 65.8553 173.633 66 173.035 66H169.745ZM179.919 61.45C179.49 61.45 179.093 61.3567 178.729 61.17C178.375 60.974 178.085 60.7127 177.861 60.386C177.647 60.0593 177.539 59.6907 177.539 59.28V58.188C177.539 57.7773 177.647 57.4087 177.861 57.082C178.085 56.7553 178.375 56.4987 178.729 56.312C179.093 56.1253 179.49 56.032 179.919 56.032C180.358 56.032 180.755 56.1253 181.109 56.312C181.473 56.4987 181.763 56.7553 181.977 57.082C182.192 57.4087 182.299 57.7773 182.299 58.188V59.28C182.299 59.6907 182.192 60.0593 181.977 60.386C181.763 60.7127 181.473 60.974 181.109 61.17C180.755 61.3567 180.358 61.45 179.919 61.45ZM179.933 60.302C180.129 60.302 180.311 60.2553 180.479 60.162C180.657 60.0593 180.797 59.924 180.899 59.756C181.011 59.5787 181.067 59.378 181.067 59.154V58.314C181.067 58.09 181.011 57.894 180.899 57.726C180.797 57.5487 180.657 57.4087 180.479 57.306C180.311 57.2033 180.129 57.152 179.933 57.152C179.728 57.152 179.537 57.2033 179.359 57.306C179.191 57.4087 179.051 57.5487 178.939 57.726C178.837 57.894 178.785 58.09 178.785 58.314V59.154C178.785 59.378 178.837 59.5787 178.939 59.756C179.051 59.924 179.191 60.0593 179.359 60.162C179.537 60.2553 179.728 60.302 179.933 60.302ZM186.569 66.168C186.14 66.168 185.743 66.0747 185.379 65.888C185.015 65.692 184.726 65.4307 184.511 65.104C184.297 64.7773 184.189 64.4133 184.189 64.012V62.92C184.189 62.5093 184.297 62.1407 184.511 61.814C184.726 61.478 185.015 61.2167 185.379 61.03C185.743 60.8433 186.14 60.75 186.569 60.75C186.999 60.75 187.391 60.8433 187.745 61.03C188.109 61.2167 188.399 61.478 188.613 61.814C188.837 62.1407 188.949 62.5093 188.949 62.92V64.012C188.949 64.4133 188.837 64.7773 188.613 65.104C188.399 65.4307 188.109 65.692 187.745 65.888C187.391 66.0747 186.999 66.168 186.569 66.168ZM186.583 65.02C186.779 65.02 186.961 64.9733 187.129 64.88C187.307 64.7773 187.447 64.642 187.549 64.474C187.661 64.306 187.717 64.1053 187.717 63.872V63.032C187.717 62.808 187.661 62.612 187.549 62.444C187.447 62.2667 187.307 62.1313 187.129 62.038C186.961 61.9353 186.779 61.884 186.583 61.884C186.378 61.884 186.187 61.9353 186.009 62.038C185.841 62.1313 185.701 62.2667 185.589 62.444C185.487 62.612 185.435 62.808 185.435 63.032V63.872C185.435 64.1053 185.487 64.306 185.589 64.474C185.701 64.642 185.841 64.7773 186.009 64.88C186.187 64.9733 186.378 65.02 186.583 65.02ZM179.261 66L185.925 56.2H187.199L180.535 66H179.261Z" fill="#8A8A8A"/>
<rect x="0.5" y="76.5" width="299" height="36" rx="4.5" stroke="#F2F2F2"/>
<rect x="4" y="80" width="14" height="29" rx="5" fill="#CB11FF"/>
<rect x="22" y="80" width="14" height="29" rx="5" fill="#CB11FF"/>
<rect x="40" y="80" width="14" height="29" rx="5" fill="#CB11FF"/>
<rect x="58" y="80" width="14" height="29" rx="5" fill="#CB11FF"/>
<rect x="76" y="80" width="14" height="29" rx="5" fill="#CB11FF"/>
<rect x="94" y="80" width="14" height="29" rx="5" fill="#CB11FF"/>
<defs>
<linearGradient id="paint0_linear_54_136" x1="24.9999" y1="50" x2="25" y2="1.00385e-06" gradientUnits="userSpaceOnUse">
<stop offset="0.1875" stop-color="#CB11FF"/>
<stop offset="0.625" stop-color="#A00BE7"/>
</linearGradient>
<clipPath id="clip0_54_136">
<rect width="50" height="50" fill="white"/>
</clipPath>
</defs>
</svg>
