<svg width="180" height="47" viewBox="0 0 180 47" fill="none" xmlns="http://www.w3.org/2000/svg">
<path d="M0.927979 37V3.4H16.288C18.56 3.4 20.624 3.896 22.48 4.888C24.368 5.88 25.856 7.256 26.944 9.016C28.064 10.776 28.624 12.808 28.624 15.112C28.624 17.256 28.112 19.192 27.088 20.92C26.064 22.616 24.72 23.992 23.056 25.048L25.744 29.608C25.904 29.832 26.08 30.008 26.272 30.136C26.496 30.264 26.784 30.328 27.136 30.328H30.112V37H25.408C23.968 37 22.656 36.664 21.472 35.992C20.288 35.288 19.36 34.376 18.688 33.256L15.088 26.872C14.864 26.872 14.624 26.872 14.368 26.872C14.144 26.872 13.904 26.872 13.648 26.872H8.99198V37H0.927979ZM8.99198 20.2H15.376C16.304 20.2 17.168 20.008 17.968 19.624C18.768 19.208 19.392 18.632 19.84 17.896C20.32 17.128 20.56 16.216 20.56 15.16C20.56 14.104 20.32 13.208 19.84 12.472C19.36 11.704 18.72 11.128 17.92 10.744C17.152 10.328 16.304 10.12 15.376 10.12H8.99198V20.2Z" fill="#171717"/>
<path d="M44.851 37.576C42.323 37.576 40.051 37.016 38.035 35.896C36.019 34.776 34.419 33.24 33.235 31.288C32.083 29.336 31.507 27.144 31.507 24.712C31.507 22.248 32.083 20.056 33.235 18.136C34.419 16.184 36.019 14.648 38.035 13.528C40.051 12.376 42.323 11.8 44.851 11.8C47.379 11.8 49.635 12.376 51.619 13.528C53.635 14.648 55.219 16.184 56.371 18.136C57.555 20.056 58.147 22.248 58.147 24.712C58.147 27.144 57.555 29.336 56.371 31.288C55.219 33.24 53.635 34.776 51.619 35.896C49.603 37.016 47.347 37.576 44.851 37.576ZM44.851 31.096C46.035 31.096 47.059 30.808 47.923 30.232C48.787 29.656 49.459 28.888 49.939 27.928C50.419 26.968 50.659 25.88 50.659 24.664C50.659 23.48 50.419 22.408 49.939 21.448C49.459 20.488 48.787 19.72 47.923 19.144C47.059 18.568 46.035 18.28 44.851 18.28C43.667 18.28 42.627 18.568 41.731 19.144C40.867 19.72 40.195 20.488 39.715 21.448C39.235 22.408 38.995 23.48 38.995 24.664C38.995 25.88 39.235 26.968 39.715 27.928C40.195 28.888 40.867 29.656 41.731 30.232C42.627 30.808 43.667 31.096 44.851 31.096Z" fill="#171717"/>
<path d="M74.6132 37.576C72.5652 37.576 70.7092 37.256 69.0452 36.616C67.4132 35.976 66.0372 35.064 64.9172 33.88C63.7972 32.664 62.9332 31.24 62.3252 29.608C61.7172 27.976 61.4132 26.2 61.4132 24.28C61.4132 21.784 61.9092 19.608 62.9012 17.752C63.9252 15.896 65.3172 14.44 67.0772 13.384C68.8692 12.328 70.9172 11.8 73.2212 11.8C74.2132 11.8 75.1412 11.928 76.0052 12.184C76.9012 12.44 77.7012 12.824 78.4052 13.336C79.1412 13.816 79.7492 14.392 80.2292 15.064H80.3732V1.96H87.8132V24.232C87.8132 26.92 87.2692 29.272 86.1812 31.288C85.0932 33.304 83.5572 34.856 81.5732 35.944C79.6212 37.032 77.3012 37.576 74.6132 37.576ZM74.6132 31.144C75.7652 31.144 76.7572 30.872 77.5892 30.328C78.4532 29.752 79.1092 28.984 79.5572 28.024C80.0052 27.032 80.2292 25.928 80.2292 24.712C80.2292 23.496 80.0052 22.408 79.5572 21.448C79.1092 20.488 78.4532 19.736 77.5892 19.192C76.7572 18.616 75.7652 18.328 74.6132 18.328C73.4932 18.328 72.5012 18.616 71.6372 19.192C70.7732 19.736 70.1172 20.488 69.6692 21.448C69.2212 22.408 68.9972 23.496 68.9972 24.712C68.9972 25.928 69.2212 27.032 69.6692 28.024C70.1172 28.984 70.7732 29.752 71.6372 30.328C72.5012 30.872 73.4932 31.144 74.6132 31.144Z" fill="#171717"/>
<path d="M92.9826 37V19.624C92.9826 17.384 93.6226 15.624 94.9026 14.344C96.1826 13.064 97.9586 12.424 100.231 12.424H107.383V18.472H102.055C101.607 18.472 101.223 18.632 100.903 18.952C100.583 19.24 100.423 19.624 100.423 20.104V37H92.9826Z" fill="#171717"/>
<path d="M110.706 37V12.376H118.194V37H110.706ZM114.45 9.592C113.266 9.592 112.242 9.16 111.378 8.296C110.514 7.432 110.082 6.408 110.082 5.224C110.082 4.04 110.514 3.016 111.378 2.152C112.242 1.256 113.266 0.807999 114.45 0.807999C115.634 0.807999 116.658 1.256 117.522 2.152C118.386 3.016 118.818 4.04 118.818 5.224C118.818 6.408 118.386 7.432 117.522 8.296C116.658 9.16 115.634 9.592 114.45 9.592Z" fill="#171717"/>
<path d="M127.387 46.744V40.36H139.675C140.155 40.36 140.555 40.2 140.875 39.88C141.195 39.592 141.355 39.224 141.355 38.776V33.352H141.211C140.571 34.088 139.883 34.712 139.147 35.224C138.443 35.736 137.643 36.12 136.747 36.376C135.883 36.632 134.907 36.76 133.819 36.76C131.643 36.76 129.691 36.248 127.963 35.224C126.267 34.168 124.923 32.712 123.931 30.856C122.971 29 122.491 26.888 122.491 24.52C122.491 22.184 122.987 20.056 123.979 18.136C125.003 16.216 126.491 14.68 128.443 13.528C130.395 12.376 132.779 11.8 135.595 11.8C138.283 11.8 140.603 12.36 142.555 13.48C144.539 14.568 146.075 16.12 147.163 18.136C148.251 20.12 148.795 22.456 148.795 25.144V39.544C148.795 41.752 148.139 43.496 146.827 44.776C145.547 46.088 143.771 46.744 141.499 46.744H127.387ZM135.643 30.52C136.795 30.52 137.787 30.264 138.619 29.752C139.451 29.208 140.091 28.488 140.539 27.592C140.987 26.696 141.211 25.704 141.211 24.616C141.211 23.464 140.987 22.408 140.539 21.448C140.091 20.488 139.451 19.736 138.619 19.192C137.787 18.616 136.795 18.328 135.643 18.328C134.523 18.328 133.531 18.6 132.667 19.144C131.835 19.688 131.195 20.424 130.747 21.352C130.299 22.28 130.075 23.32 130.075 24.472C130.075 25.592 130.299 26.616 130.747 27.544C131.195 28.44 131.835 29.16 132.667 29.704C133.531 30.248 134.523 30.52 135.643 30.52Z" fill="#171717"/>
<path d="M166.351 37.576C163.823 37.576 161.551 37.016 159.535 35.896C157.519 34.776 155.919 33.24 154.735 31.288C153.583 29.336 153.007 27.144 153.007 24.712C153.007 22.248 153.583 20.056 154.735 18.136C155.919 16.184 157.519 14.648 159.535 13.528C161.551 12.376 163.823 11.8 166.351 11.8C168.879 11.8 171.135 12.376 173.119 13.528C175.135 14.648 176.719 16.184 177.871 18.136C179.055 20.056 179.647 22.248 179.647 24.712C179.647 27.144 179.055 29.336 177.871 31.288C176.719 33.24 175.135 34.776 173.119 35.896C171.103 37.016 168.847 37.576 166.351 37.576ZM166.351 31.096C167.535 31.096 168.559 30.808 169.423 30.232C170.287 29.656 170.959 28.888 171.439 27.928C171.919 26.968 172.159 25.88 172.159 24.664C172.159 23.48 171.919 22.408 171.439 21.448C170.959 20.488 170.287 19.72 169.423 19.144C168.559 18.568 167.535 18.28 166.351 18.28C165.167 18.28 164.127 18.568 163.231 19.144C162.367 19.72 161.695 20.488 161.215 21.448C160.735 22.408 160.495 23.48 160.495 24.664C160.495 25.88 160.735 26.968 161.215 27.928C161.695 28.888 162.367 29.656 163.231 30.232C164.127 30.808 165.167 31.096 166.351 31.096Z" fill="#171717"/>
</svg>
